<?xml version="1.0" encoding="utf-8" standalone="no"?>
<!DOCTYPE svg PUBLIC "-//W3C//DTD SVG 1.1//EN"
  "http://www.w3.org/Graphics/SVG/1.1/DTD/svg11.dtd">
<svg xmlns:xlink="http://www.w3.org/1999/xlink" width="709.579687pt" height="280.63pt" viewBox="0 0 709.579687 280.63" xmlns="http://www.w3.org/2000/svg" version="1.1">
 <metadata>
  <rdf:RDF xmlns:dc="http://purl.org/dc/elements/1.1/" xmlns:cc="http://creativecommons.org/ns#" xmlns:rdf="http://www.w3.org/1999/02/22-rdf-syntax-ns#">
   <cc:Work>
    <dc:type rdf:resource="http://purl.org/dc/dcmitype/StillImage"/>
    <dc:date>2026-07-22T02:57:26.797953</dc:date>
    <dc:format>image/svg+xml</dc:format>
    <dc:creator>
     <cc:Agent>
      <dc:title>Matplotlib v3.11.1, https://matplotlib.org/</dc:title>
     </cc:Agent>
    </dc:creator>
   </cc:Work>
  </rdf:RDF>
 </metadata>
 <defs>
  <style type="text/css">*{stroke-linejoin: round; stroke-linecap: butt}</style>
 </defs>
 <g id="figure_1">
  <g id="patch_1">
   <path d="M 0 280.63 
L 709.579687 280.63 
L 709.579687 0 
L 0 0 
z
" style="fill: #0d1117"/>
  </g>
  <g id="axes_1">
   <g id="patch_2">
    <path d="M 59.013203 256.43 
L 656.928984 256.43 
L 656.928984 25.67 
L 59.013203 25.67 
z
" style="fill: #0d1117"/>
   </g>
   <g id="matplotlib.axis_1">
    <g id="xtick_1">
     <g id="line2d_1">
      <path d="M 103.177437 256.43 
L 103.177437 25.67 
" clip-path="url(#pe482fd8fdb)" style="fill: none; stroke-dasharray: 1.85,0.8; stroke-dashoffset: 0; stroke: #21262d; stroke-width: 0.5"/>
     </g>
     <g id="line2d_2">
      <defs>
       <path id="m2bfacba0bf" d="M 0 0 
L 0 3.5 
" style="stroke: #000000; stroke-width: 0.8"/>
      </defs>
      <g>
       <use xlink:href="#m2bfacba0bf" x="103.177437" y="256.43" style="stroke: #000000; stroke-width: 0.8"/>
      </g>
     </g>
     <g id="text_1">
      <!-- 06/21 -->
      <g style="fill: #8b949e" transform="translate(88.768062 271.027656) scale(0.1 -0.1)">
       <defs>
        <path id="DejaVuSans-13" d="M 2034 4250 
Q 1547 4250 1301 3770 
Q 1056 3291 1056 2328 
Q 1056 1369 1301 889 
Q 1547 409 2034 409 
Q 2525 409 2770 889 
Q 3016 1369 3016 2328 
Q 3016 3291 2770 3770 
Q 2525 4250 2034 4250 
z
M 2034 4750 
Q 2819 4750 3233 4129 
Q 3647 3509 3647 2328 
Q 3647 1150 3233 529 
Q 2819 -91 2034 -91 
Q 1250 -91 836 529 
Q 422 1150 422 2328 
Q 422 3509 836 4129 
Q 1250 4750 2034 4750 
z
" transform="scale(0.015625)"/>
        <path id="DejaVuSans-19" d="M 2113 2584 
Q 1688 2584 1439 2293 
Q 1191 2003 1191 1497 
Q 1191 994 1439 701 
Q 1688 409 2113 409 
Q 2538 409 2786 701 
Q 3034 994 3034 1497 
Q 3034 2003 2786 2293 
Q 2538 2584 2113 2584 
z
M 3366 4563 
L 3366 3988 
Q 3128 4100 2886 4159 
Q 2644 4219 2406 4219 
Q 1781 4219 1451 3797 
Q 1122 3375 1075 2522 
Q 1259 2794 1537 2939 
Q 1816 3084 2150 3084 
Q 2853 3084 3261 2657 
Q 3669 2231 3669 1497 
Q 3669 778 3244 343 
Q 2819 -91 2113 -91 
Q 1303 -91 875 529 
Q 447 1150 447 2328 
Q 447 3434 972 4092 
Q 1497 4750 2381 4750 
Q 2619 4750 2861 4703 
Q 3103 4656 3366 4563 
z
" transform="scale(0.015625)"/>
        <path id="DejaVuSans-12" d="M 1625 4666 
L 2156 4666 
L 531 -594 
L 0 -594 
L 1625 4666 
z
" transform="scale(0.015625)"/>
        <path id="DejaVuSans-15" d="M 1228 531 
L 3431 531 
L 3431 0 
L 469 0 
L 469 531 
Q 828 903 1448 1529 
Q 2069 2156 2228 2338 
Q 2531 2678 2651 2914 
Q 2772 3150 2772 3378 
Q 2772 3750 2511 3984 
Q 2250 4219 1831 4219 
Q 1534 4219 1204 4116 
Q 875 4013 500 3803 
L 500 4441 
Q 881 4594 1212 4672 
Q 1544 4750 1819 4750 
Q 2544 4750 2975 4387 
Q 3406 4025 3406 3419 
Q 3406 3131 3298 2873 
Q 3191 2616 2906 2266 
Q 2828 2175 2409 1742 
Q 1991 1309 1228 531 
z
" transform="scale(0.015625)"/>
        <path id="DejaVuSans-14" d="M 794 531 
L 1825 531 
L 1825 4091 
L 703 3866 
L 703 4441 
L 1819 4666 
L 2450 4666 
L 2450 531 
L 3481 531 
L 3481 0 
L 794 0 
L 794 531 
z
" transform="scale(0.015625)"/>
       </defs>
       <use xlink:href="#DejaVuSans-13"/>
       <use xlink:href="#DejaVuSans-19" transform="translate(63.625 0)"/>
       <use xlink:href="#DejaVuSans-12" transform="translate(127.25 0)"/>
       <use xlink:href="#DejaVuSans-15" transform="translate(160.9375 0)"/>
       <use xlink:href="#DejaVuSans-14" transform="translate(224.5625 0)"/>
      </g>
     </g>
    </g>
    <g id="xtick_2">
     <g id="line2d_3">
      <path d="M 171.122412 256.43 
L 171.122412 25.67 
" clip-path="url(#pe482fd8fdb)" style="fill: none; stroke-dasharray: 1.85,0.8; stroke-dashoffset: 0; stroke: #21262d; stroke-width: 0.5"/>
     </g>
     <g id="line2d_4">
      <g>
       <use xlink:href="#m2bfacba0bf" x="171.122412" y="256.43" style="stroke: #000000; stroke-width: 0.8"/>
      </g>
     </g>
     <g id="text_2">
      <!-- 06/25 -->
      <g style="fill: #8b949e" transform="translate(156.713037 271.027656) scale(0.1 -0.1)">
       <defs>
        <path id="DejaVuSans-18" d="M 691 4666 
L 3169 4666 
L 3169 4134 
L 1269 4134 
L 1269 2991 
Q 1406 3038 1543 3061 
Q 1681 3084 1819 3084 
Q 2600 3084 3056 2656 
Q 3513 2228 3513 1497 
Q 3513 744 3044 326 
Q 2575 -91 1722 -91 
Q 1428 -91 1123 -41 
Q 819 9 494 109 
L 494 744 
Q 775 591 1075 516 
Q 1375 441 1709 441 
Q 2250 441 2565 725 
Q 2881 1009 2881 1497 
Q 2881 1984 2565 2268 
Q 2250 2553 1709 2553 
Q 1456 2553 1204 2497 
Q 953 2441 691 2322 
L 691 4666 
z
" transform="scale(0.015625)"/>
       </defs>
       <use xlink:href="#DejaVuSans-13"/>
       <use xlink:href="#DejaVuSans-19" transform="translate(63.625 0)"/>
       <use xlink:href="#DejaVuSans-12" transform="translate(127.25 0)"/>
       <use xlink:href="#DejaVuSans-15" transform="translate(160.9375 0)"/>
       <use xlink:href="#DejaVuSans-18" transform="translate(224.5625 0)"/>
      </g>
     </g>
    </g>
    <g id="xtick_3">
     <g id="line2d_5">
      <path d="M 239.067387 256.43 
L 239.067387 25.67 
" clip-path="url(#pe482fd8fdb)" style="fill: none; stroke-dasharray: 1.85,0.8; stroke-dashoffset: 0; stroke: #21262d; stroke-width: 0.5"/>
     </g>
     <g id="line2d_6">
      <g>
       <use xlink:href="#m2bfacba0bf" x="239.067387" y="256.43" style="stroke: #000000; stroke-width: 0.8"/>
      </g>
     </g>
     <g id="text_3">
      <!-- 06/29 -->
      <g style="fill: #8b949e" transform="translate(224.658012 271.027656) scale(0.1 -0.1)">
       <defs>
        <path id="DejaVuSans-1c" d="M 703 97 
L 703 672 
Q 941 559 1184 500 
Q 1428 441 1663 441 
Q 2288 441 2617 861 
Q 2947 1281 2994 2138 
Q 2813 1869 2534 1725 
Q 2256 1581 1919 1581 
Q 1219 1581 811 2004 
Q 403 2428 403 3163 
Q 403 3881 828 4315 
Q 1253 4750 1959 4750 
Q 2769 4750 3195 4129 
Q 3622 3509 3622 2328 
Q 3622 1225 3098 567 
Q 2575 -91 1691 -91 
Q 1453 -91 1209 -44 
Q 966 3 703 97 
z
M 1959 2075 
Q 2384 2075 2632 2365 
Q 2881 2656 2881 3163 
Q 2881 3666 2632 3958 
Q 2384 4250 1959 4250 
Q 1534 4250 1286 3958 
Q 1038 3666 1038 3163 
Q 1038 2656 1286 2365 
Q 1534 2075 1959 2075 
z
" transform="scale(0.015625)"/>
       </defs>
       <use xlink:href="#DejaVuSans-13"/>
       <use xlink:href="#DejaVuSans-19" transform="translate(63.625 0)"/>
       <use xlink:href="#DejaVuSans-12" transform="translate(127.25 0)"/>
       <use xlink:href="#DejaVuSans-15" transform="translate(160.9375 0)"/>
       <use xlink:href="#DejaVuSans-1c" transform="translate(224.5625 0)"/>
      </g>
     </g>
    </g>
    <g id="xtick_4">
     <g id="line2d_7">
      <path d="M 273.039875 256.43 
L 273.039875 25.67 
" clip-path="url(#pe482fd8fdb)" style="fill: none; stroke-dasharray: 1.85,0.8; stroke-dashoffset: 0; stroke: #21262d; stroke-width: 0.5"/>
     </g>
     <g id="line2d_8">
      <g>
       <use xlink:href="#m2bfacba0bf" x="273.039875" y="256.43" style="stroke: #000000; stroke-width: 0.8"/>
      </g>
     </g>
     <g id="text_4">
      <!-- 07/01 -->
      <g style="fill: #8b949e" transform="translate(258.6305 271.027656) scale(0.1 -0.1)">
       <defs>
        <path id="DejaVuSans-1a" d="M 525 4666 
L 3525 4666 
L 3525 4397 
L 1831 0 
L 1172 0 
L 2766 4134 
L 525 4134 
L 525 4666 
z
" transform="scale(0.015625)"/>
       </defs>
       <use xlink:href="#DejaVuSans-13"/>
       <use xlink:href="#DejaVuSans-1a" transform="translate(63.625 0)"/>
       <use xlink:href="#DejaVuSans-12" transform="translate(127.25 0)"/>
       <use xlink:href="#DejaVuSans-13" transform="translate(160.9375 0)"/>
       <use xlink:href="#DejaVuSans-14" transform="translate(224.5625 0)"/>
      </g>
     </g>
    </g>
    <g id="xtick_5">
     <g id="line2d_9">
      <path d="M 340.98485 256.43 
L 340.98485 25.67 
" clip-path="url(#pe482fd8fdb)" style="fill: none; stroke-dasharray: 1.85,0.8; stroke-dashoffset: 0; stroke: #21262d; stroke-width: 0.5"/>
     </g>
     <g id="line2d_10">
      <g>
       <use xlink:href="#m2bfacba0bf" x="340.98485" y="256.43" style="stroke: #000000; stroke-width: 0.8"/>
      </g>
     </g>
     <g id="text_5">
      <!-- 07/05 -->
      <g style="fill: #8b949e" transform="translate(326.575475 271.027656) scale(0.1 -0.1)">
       <use xlink:href="#DejaVuSans-13"/>
       <use xlink:href="#DejaVuSans-1a" transform="translate(63.625 0)"/>
       <use xlink:href="#DejaVuSans-12" transform="translate(127.25 0)"/>
       <use xlink:href="#DejaVuSans-13" transform="translate(160.9375 0)"/>
       <use xlink:href="#DejaVuSans-18" transform="translate(224.5625 0)"/>
      </g>
     </g>
    </g>
    <g id="xtick_6">
     <g id="line2d_11">
      <path d="M 408.929825 256.43 
L 408.929825 25.67 
" clip-path="url(#pe482fd8fdb)" style="fill: none; stroke-dasharray: 1.85,0.8; stroke-dashoffset: 0; stroke: #21262d; stroke-width: 0.5"/>
     </g>
     <g id="line2d_12">
      <g>
       <use xlink:href="#m2bfacba0bf" x="408.929825" y="256.43" style="stroke: #000000; stroke-width: 0.8"/>
      </g>
     </g>
     <g id="text_6">
      <!-- 07/09 -->
      <g style="fill: #8b949e" transform="translate(394.52045 271.027656) scale(0.1 -0.1)">
       <use xlink:href="#DejaVuSans-13"/>
       <use xlink:href="#DejaVuSans-1a" transform="translate(63.625 0)"/>
       <use xlink:href="#DejaVuSans-12" transform="translate(127.25 0)"/>
       <use xlink:href="#DejaVuSans-13" transform="translate(160.9375 0)"/>
       <use xlink:href="#DejaVuSans-1c" transform="translate(224.5625 0)"/>
      </g>
     </g>
    </g>
    <g id="xtick_7">
     <g id="line2d_13">
      <path d="M 476.8748 256.43 
L 476.8748 25.67 
" clip-path="url(#pe482fd8fdb)" style="fill: none; stroke-dasharray: 1.85,0.8; stroke-dashoffset: 0; stroke: #21262d; stroke-width: 0.5"/>
     </g>
     <g id="line2d_14">
      <g>
       <use xlink:href="#m2bfacba0bf" x="476.8748" y="256.43" style="stroke: #000000; stroke-width: 0.8"/>
      </g>
     </g>
     <g id="text_7">
      <!-- 07/13 -->
      <g style="fill: #8b949e" transform="translate(462.465425 271.027656) scale(0.1 -0.1)">
       <defs>
        <path id="DejaVuSans-16" d="M 2597 2516 
Q 3050 2419 3304 2112 
Q 3559 1806 3559 1356 
Q 3559 666 3084 287 
Q 2609 -91 1734 -91 
Q 1441 -91 1130 -33 
Q 819 25 488 141 
L 488 750 
Q 750 597 1062 519 
Q 1375 441 1716 441 
Q 2309 441 2620 675 
Q 2931 909 2931 1356 
Q 2931 1769 2642 2001 
Q 2353 2234 1838 2234 
L 1294 2234 
L 1294 2753 
L 1863 2753 
Q 2328 2753 2575 2939 
Q 2822 3125 2822 3475 
Q 2822 3834 2567 4026 
Q 2313 4219 1838 4219 
Q 1578 4219 1281 4162 
Q 984 4106 628 3988 
L 628 4550 
Q 988 4650 1302 4700 
Q 1616 4750 1894 4750 
Q 2613 4750 3031 4423 
Q 3450 4097 3450 3541 
Q 3450 3153 3228 2886 
Q 3006 2619 2597 2516 
z
" transform="scale(0.015625)"/>
       </defs>
       <use xlink:href="#DejaVuSans-13"/>
       <use xlink:href="#DejaVuSans-1a" transform="translate(63.625 0)"/>
       <use xlink:href="#DejaVuSans-12" transform="translate(127.25 0)"/>
       <use xlink:href="#DejaVuSans-14" transform="translate(160.9375 0)"/>
       <use xlink:href="#DejaVuSans-16" transform="translate(224.5625 0)"/>
      </g>
     </g>
    </g>
    <g id="xtick_8">
     <g id="line2d_15">
      <path d="M 544.819775 256.43 
L 544.819775 25.67 
" clip-path="url(#pe482fd8fdb)" style="fill: none; stroke-dasharray: 1.85,0.8; stroke-dashoffset: 0; stroke: #21262d; stroke-width: 0.5"/>
     </g>
     <g id="line2d_16">
      <g>
       <use xlink:href="#m2bfacba0bf" x="544.819775" y="256.43" style="stroke: #000000; stroke-width: 0.8"/>
      </g>
     </g>
     <g id="text_8">
      <!-- 07/17 -->
      <g style="fill: #8b949e" transform="translate(530.4104 271.027656) scale(0.1 -0.1)">
       <use xlink:href="#DejaVuSans-13"/>
       <use xlink:href="#DejaVuSans-1a" transform="translate(63.625 0)"/>
       <use xlink:href="#DejaVuSans-12" transform="translate(127.25 0)"/>
       <use xlink:href="#DejaVuSans-14" transform="translate(160.9375 0)"/>
       <use xlink:href="#DejaVuSans-1a" transform="translate(224.5625 0)"/>
      </g>
     </g>
    </g>
    <g id="xtick_9">
     <g id="line2d_17">
      <path d="M 612.764751 256.43 
L 612.764751 25.67 
" clip-path="url(#pe482fd8fdb)" style="fill: none; stroke-dasharray: 1.85,0.8; stroke-dashoffset: 0; stroke: #21262d; stroke-width: 0.5"/>
     </g>
     <g id="line2d_18">
      <g>
       <use xlink:href="#m2bfacba0bf" x="612.764751" y="256.43" style="stroke: #000000; stroke-width: 0.8"/>
      </g>
     </g>
     <g id="text_9">
      <!-- 07/21 -->
      <g style="fill: #8b949e" transform="translate(598.355376 271.027656) scale(0.1 -0.1)">
       <use xlink:href="#DejaVuSans-13"/>
       <use xlink:href="#DejaVuSans-1a" transform="translate(63.625 0)"/>
       <use xlink:href="#DejaVuSans-12" transform="translate(127.25 0)"/>
       <use xlink:href="#DejaVuSans-15" transform="translate(160.9375 0)"/>
       <use xlink:href="#DejaVuSans-14" transform="translate(224.5625 0)"/>
      </g>
     </g>
    </g>
   </g>
   <g id="matplotlib.axis_2">
    <g id="ytick_1">
     <g id="line2d_19">
      <path d="M 59.013203 234.597308 
L 656.928984 234.597308 
" clip-path="url(#pe482fd8fdb)" style="fill: none; stroke-dasharray: 1.85,0.8; stroke-dashoffset: 0; stroke: #21262d; stroke-width: 0.5"/>
     </g>
     <g id="line2d_20">
      <defs>
       <path id="m3e7fc73393" d="M 0 0 
L -3.5 0 
" style="stroke: #000000; stroke-width: 0.8"/>
      </defs>
      <g>
       <use xlink:href="#m3e7fc73393" x="59.013203" y="234.597308" style="stroke: #000000; stroke-width: 0.8"/>
      </g>
     </g>
     <g id="text_10">
      <!-- 9750 -->
      <g style="fill: #58a6ff" transform="translate(26.563203 238.396136) scale(0.1 -0.1)">
       <use xlink:href="#DejaVuSans-1c"/>
       <use xlink:href="#DejaVuSans-1a" transform="translate(63.625 0)"/>
       <use xlink:href="#DejaVuSans-18" transform="translate(127.25 0)"/>
       <use xlink:href="#DejaVuSans-13" transform="translate(190.875 0)"/>
      </g>
     </g>
    </g>
    <g id="ytick_2">
     <g id="line2d_21">
      <path d="M 59.013203 206.889438 
L 656.928984 206.889438 
" clip-path="url(#pe482fd8fdb)" style="fill: none; stroke-dasharray: 1.85,0.8; stroke-dashoffset: 0; stroke: #21262d; stroke-width: 0.5"/>
     </g>
     <g id="line2d_22">
      <g>
       <use xlink:href="#m3e7fc73393" x="59.013203" y="206.889438" style="stroke: #000000; stroke-width: 0.8"/>
      </g>
     </g>
     <g id="text_11">
      <!-- 9800 -->
      <g style="fill: #58a6ff" transform="translate(26.563203 210.688267) scale(0.1 -0.1)">
       <defs>
        <path id="DejaVuSans-1b" d="M 2034 2216 
Q 1584 2216 1326 1975 
Q 1069 1734 1069 1313 
Q 1069 891 1326 650 
Q 1584 409 2034 409 
Q 2484 409 2743 651 
Q 3003 894 3003 1313 
Q 3003 1734 2745 1975 
Q 2488 2216 2034 2216 
z
M 1403 2484 
Q 997 2584 770 2862 
Q 544 3141 544 3541 
Q 544 4100 942 4425 
Q 1341 4750 2034 4750 
Q 2731 4750 3128 4425 
Q 3525 4100 3525 3541 
Q 3525 3141 3298 2862 
Q 3072 2584 2669 2484 
Q 3125 2378 3379 2068 
Q 3634 1759 3634 1313 
Q 3634 634 3220 271 
Q 2806 -91 2034 -91 
Q 1263 -91 848 271 
Q 434 634 434 1313 
Q 434 1759 690 2068 
Q 947 2378 1403 2484 
z
M 1172 3481 
Q 1172 3119 1398 2916 
Q 1625 2713 2034 2713 
Q 2441 2713 2670 2916 
Q 2900 3119 2900 3481 
Q 2900 3844 2670 4047 
Q 2441 4250 2034 4250 
Q 1625 4250 1398 4047 
Q 1172 3844 1172 3481 
z
" transform="scale(0.015625)"/>
       </defs>
       <use xlink:href="#DejaVuSans-1c"/>
       <use xlink:href="#DejaVuSans-1b" transform="translate(63.625 0)"/>
       <use xlink:href="#DejaVuSans-13" transform="translate(127.25 0)"/>
       <use xlink:href="#DejaVuSans-13" transform="translate(190.875 0)"/>
      </g>
     </g>
    </g>
    <g id="ytick_3">
     <g id="line2d_23">
      <path d="M 59.013203 179.181569 
L 656.928984 179.181569 
" clip-path="url(#pe482fd8fdb)" style="fill: none; stroke-dasharray: 1.85,0.8; stroke-dashoffset: 0; stroke: #21262d; stroke-width: 0.5"/>
     </g>
     <g id="line2d_24">
      <g>
       <use xlink:href="#m3e7fc73393" x="59.013203" y="179.181569" style="stroke: #000000; stroke-width: 0.8"/>
      </g>
     </g>
     <g id="text_12">
      <!-- 9850 -->
      <g style="fill: #58a6ff" transform="translate(26.563203 182.980398) scale(0.1 -0.1)">
       <use xlink:href="#DejaVuSans-1c"/>
       <use xlink:href="#DejaVuSans-1b" transform="translate(63.625 0)"/>
       <use xlink:href="#DejaVuSans-18" transform="translate(127.25 0)"/>
       <use xlink:href="#DejaVuSans-13" transform="translate(190.875 0)"/>
      </g>
     </g>
    </g>
    <g id="ytick_4">
     <g id="line2d_25">
      <path d="M 59.013203 151.4737 
L 656.928984 151.4737 
" clip-path="url(#pe482fd8fdb)" style="fill: none; stroke-dasharray: 1.85,0.8; stroke-dashoffset: 0; stroke: #21262d; stroke-width: 0.5"/>
     </g>
     <g id="line2d_26">
      <g>
       <use xlink:href="#m3e7fc73393" x="59.013203" y="151.4737" style="stroke: #000000; stroke-width: 0.8"/>
      </g>
     </g>
     <g id="text_13">
      <!-- 9900 -->
      <g style="fill: #58a6ff" transform="translate(26.563203 155.272528) scale(0.1 -0.1)">
       <use xlink:href="#DejaVuSans-1c"/>
       <use xlink:href="#DejaVuSans-1c" transform="translate(63.625 0)"/>
       <use xlink:href="#DejaVuSans-13" transform="translate(127.25 0)"/>
       <use xlink:href="#DejaVuSans-13" transform="translate(190.875 0)"/>
      </g>
     </g>
    </g>
    <g id="ytick_5">
     <g id="line2d_27">
      <path d="M 59.013203 123.765831 
L 656.928984 123.765831 
" clip-path="url(#pe482fd8fdb)" style="fill: none; stroke-dasharray: 1.85,0.8; stroke-dashoffset: 0; stroke: #21262d; stroke-width: 0.5"/>
     </g>
     <g id="line2d_28">
      <g>
       <use xlink:href="#m3e7fc73393" x="59.013203" y="123.765831" style="stroke: #000000; stroke-width: 0.8"/>
      </g>
     </g>
     <g id="text_14">
      <!-- 9950 -->
      <g style="fill: #58a6ff" transform="translate(26.563203 127.564659) scale(0.1 -0.1)">
       <use xlink:href="#DejaVuSans-1c"/>
       <use xlink:href="#DejaVuSans-1c" transform="translate(63.625 0)"/>
       <use xlink:href="#DejaVuSans-18" transform="translate(127.25 0)"/>
       <use xlink:href="#DejaVuSans-13" transform="translate(190.875 0)"/>
      </g>
     </g>
    </g>
    <g id="ytick_6">
     <g id="line2d_29">
      <path d="M 59.013203 96.057962 
L 656.928984 96.057962 
" clip-path="url(#pe482fd8fdb)" style="fill: none; stroke-dasharray: 1.85,0.8; stroke-dashoffset: 0; stroke: #21262d; stroke-width: 0.5"/>
     </g>
     <g id="line2d_30">
      <g>
       <use xlink:href="#m3e7fc73393" x="59.013203" y="96.057962" style="stroke: #000000; stroke-width: 0.8"/>
      </g>
     </g>
     <g id="text_15">
      <!-- 10000 -->
      <g style="fill: #58a6ff" transform="translate(20.200703 99.85679) scale(0.1 -0.1)">
       <use xlink:href="#DejaVuSans-14"/>
       <use xlink:href="#DejaVuSans-13" transform="translate(63.625 0)"/>
       <use xlink:href="#DejaVuSans-13" transform="translate(127.25 0)"/>
       <use xlink:href="#DejaVuSans-13" transform="translate(190.875 0)"/>
       <use xlink:href="#DejaVuSans-13" transform="translate(254.5 0)"/>
      </g>
     </g>
    </g>
    <g id="ytick_7">
     <g id="line2d_31">
      <path d="M 59.013203 68.350093 
L 656.928984 68.350093 
" clip-path="url(#pe482fd8fdb)" style="fill: none; stroke-dasharray: 1.85,0.8; stroke-dashoffset: 0; stroke: #21262d; stroke-width: 0.5"/>
     </g>
     <g id="line2d_32">
      <g>
       <use xlink:href="#m3e7fc73393" x="59.013203" y="68.350093" style="stroke: #000000; stroke-width: 0.8"/>
      </g>
     </g>
     <g id="text_16">
      <!-- 10050 -->
      <g style="fill: #58a6ff" transform="translate(20.200703 72.148921) scale(0.1 -0.1)">
       <use xlink:href="#DejaVuSans-14"/>
       <use xlink:href="#DejaVuSans-13" transform="translate(63.625 0)"/>
       <use xlink:href="#DejaVuSans-13" transform="translate(127.25 0)"/>
       <use xlink:href="#DejaVuSans-18" transform="translate(190.875 0)"/>
       <use xlink:href="#DejaVuSans-13" transform="translate(254.5 0)"/>
      </g>
     </g>
    </g>
    <g id="ytick_8">
     <g id="line2d_33">
      <path d="M 59.013203 40.642224 
L 656.928984 40.642224 
" clip-path="url(#pe482fd8fdb)" style="fill: none; stroke-dasharray: 1.85,0.8; stroke-dashoffset: 0; stroke: #21262d; stroke-width: 0.5"/>
     </g>
     <g id="line2d_34">
      <g>
       <use xlink:href="#m3e7fc73393" x="59.013203" y="40.642224" style="stroke: #000000; stroke-width: 0.8"/>
      </g>
     </g>
     <g id="text_17">
      <!-- 10100 -->
      <g style="fill: #58a6ff" transform="translate(20.200703 44.441052) scale(0.1 -0.1)">
       <use xlink:href="#DejaVuSans-14"/>
       <use xlink:href="#DejaVuSans-13" transform="translate(63.625 0)"/>
       <use xlink:href="#DejaVuSans-14" transform="translate(127.25 0)"/>
       <use xlink:href="#DejaVuSans-13" transform="translate(190.875 0)"/>
       <use xlink:href="#DejaVuSans-13" transform="translate(254.5 0)"/>
      </g>
     </g>
    </g>
    <g id="text_18">
     <!-- Portfolio ($) -->
     <g style="fill: #58a6ff" transform="translate(14.038594 167.366563) rotate(-90) scale(0.09 -0.09)">
      <defs>
       <path id="DejaVuSans-33" d="M 1259 4147 
L 1259 2394 
L 2053 2394 
Q 2494 2394 2734 2622 
Q 2975 2850 2975 3272 
Q 2975 3691 2734 3919 
Q 2494 4147 2053 4147 
L 1259 4147 
z
M 628 4666 
L 2053 4666 
Q 2838 4666 3239 4311 
Q 3641 3956 3641 3272 
Q 3641 2581 3239 2228 
Q 2838 1875 2053 1875 
L 1259 1875 
L 1259 0 
L 628 0 
L 628 4666 
z
" transform="scale(0.015625)"/>
       <path id="DejaVuSans-52" d="M 1959 3097 
Q 1497 3097 1228 2736 
Q 959 2375 959 1747 
Q 959 1119 1226 758 
Q 1494 397 1959 397 
Q 2419 397 2687 759 
Q 2956 1122 2956 1747 
Q 2956 2369 2687 2733 
Q 2419 3097 1959 3097 
z
M 1959 3584 
Q 2709 3584 3137 3096 
Q 3566 2609 3566 1747 
Q 3566 888 3137 398 
Q 2709 -91 1959 -91 
Q 1206 -91 779 398 
Q 353 888 353 1747 
Q 353 2609 779 3096 
Q 1206 3584 1959 3584 
z
" transform="scale(0.015625)"/>
       <path id="DejaVuSans-55" d="M 2631 2963 
Q 2534 3019 2420 3045 
Q 2306 3072 2169 3072 
Q 1681 3072 1420 2755 
Q 1159 2438 1159 1844 
L 1159 0 
L 581 0 
L 581 3500 
L 1159 3500 
L 1159 2956 
Q 1341 3275 1631 3429 
Q 1922 3584 2338 3584 
Q 2397 3584 2469 3576 
Q 2541 3569 2628 3553 
L 2631 2963 
z
" transform="scale(0.015625)"/>
       <path id="DejaVuSans-57" d="M 1172 4494 
L 1172 3500 
L 2356 3500 
L 2356 3053 
L 1172 3053 
L 1172 1153 
Q 1172 725 1289 603 
Q 1406 481 1766 481 
L 2356 481 
L 2356 0 
L 1766 0 
Q 1100 0 847 248 
Q 594 497 594 1153 
L 594 3053 
L 172 3053 
L 172 3500 
L 594 3500 
L 594 4494 
L 1172 4494 
z
" transform="scale(0.015625)"/>
       <path id="DejaVuSans-49" d="M 2375 4863 
L 2375 4384 
L 1825 4384 
Q 1516 4384 1395 4259 
Q 1275 4134 1275 3809 
L 1275 3500 
L 2222 3500 
L 2222 3053 
L 1275 3053 
L 1275 0 
L 697 0 
L 697 3053 
L 147 3053 
L 147 3500 
L 697 3500 
L 697 3744 
Q 697 4328 969 4595 
Q 1241 4863 1831 4863 
L 2375 4863 
z
" transform="scale(0.015625)"/>
       <path id="DejaVuSans-4f" d="M 603 4863 
L 1178 4863 
L 1178 0 
L 603 0 
L 603 4863 
z
" transform="scale(0.015625)"/>
       <path id="DejaVuSans-4c" d="M 603 3500 
L 1178 3500 
L 1178 0 
L 603 0 
L 603 3500 
z
M 603 4863 
L 1178 4863 
L 1178 4134 
L 603 4134 
L 603 4863 
z
" transform="scale(0.015625)"/>
       <path id="DejaVuSans-3" transform="scale(0.015625)"/>
       <path id="DejaVuSans-b" d="M 1984 4856 
Q 1566 4138 1362 3434 
Q 1159 2731 1159 2009 
Q 1159 1288 1364 580 
Q 1569 -128 1984 -844 
L 1484 -844 
Q 1016 -109 783 600 
Q 550 1309 550 2009 
Q 550 2706 781 3412 
Q 1013 4119 1484 4856 
L 1984 4856 
z
" transform="scale(0.015625)"/>
       <path id="DejaVuSans-7" d="M 2163 -941 
L 1850 -941 
L 1847 0 
Q 1519 6 1191 76 
Q 863 147 531 288 
L 531 850 
Q 850 650 1176 548 
Q 1503 447 1850 444 
L 1850 1869 
Q 1159 1981 845 2250 
Q 531 2519 531 2988 
Q 531 3497 872 3790 
Q 1213 4084 1850 4128 
L 1850 4863 
L 2163 4863 
L 2163 4138 
Q 2453 4125 2725 4076 
Q 2997 4028 3256 3944 
L 3256 3397 
Q 2997 3528 2723 3600 
Q 2450 3672 2163 3684 
L 2163 2350 
Q 2872 2241 3206 1959 
Q 3541 1678 3541 1191 
Q 3541 663 3186 358 
Q 2831 53 2163 6 
L 2163 -941 
z
M 1850 2406 
L 1850 3688 
Q 1488 3647 1297 3481 
Q 1106 3316 1106 3041 
Q 1106 2772 1282 2622 
Q 1459 2472 1850 2406 
z
M 2163 1806 
L 2163 453 
Q 2559 506 2761 678 
Q 2963 850 2963 1131 
Q 2963 1406 2770 1568 
Q 2578 1731 2163 1806 
z
" transform="scale(0.015625)"/>
       <path id="DejaVuSans-c" d="M 513 4856 
L 1013 4856 
Q 1481 4119 1714 3412 
Q 1947 2706 1947 2009 
Q 1947 1309 1714 600 
Q 1481 -109 1013 -844 
L 513 -844 
Q 928 -128 1133 580 
Q 1338 1288 1338 2009 
Q 1338 2731 1133 3434 
Q 928 4138 513 4856 
z
" transform="scale(0.015625)"/>
      </defs>
      <use xlink:href="#DejaVuSans-33"/>
      <use xlink:href="#DejaVuSans-52" transform="translate(56.734375 0)"/>
      <use xlink:href="#DejaVuSans-55" transform="translate(117.921875 0)"/>
      <use xlink:href="#DejaVuSans-57" transform="translate(159.03125 0)"/>
      <use xlink:href="#DejaVuSans-49" transform="translate(198.234375 0)"/>
      <use xlink:href="#DejaVuSans-52" transform="translate(233.4375 0)"/>
      <use xlink:href="#DejaVuSans-4f" transform="translate(294.625 0)"/>
      <use xlink:href="#DejaVuSans-4c" transform="translate(322.40625 0)"/>
      <use xlink:href="#DejaVuSans-52" transform="translate(350.1875 0)"/>
      <use xlink:href="#DejaVuSans-3" transform="translate(411.375 0)"/>
      <use xlink:href="#DejaVuSans-b" transform="translate(443.15625 0)"/>
      <use xlink:href="#DejaVuSans-7" transform="translate(482.171875 0)"/>
      <use xlink:href="#DejaVuSans-c" transform="translate(545.796875 0)"/>
     </g>
    </g>
   </g>
   <g id="line2d_35">
    <path d="M 86.191193 96.057962 
L 86.191193 96.057962 
L 103.177437 96.057962 
L 120.163681 96.057962 
L 137.149925 96.057962 
L 154.136168 96.057962 
L 154.136168 96.057962 
L 171.122412 96.057962 
L 188.108656 96.057962 
L 188.108656 96.057962 
L 205.0949 82.381358 
L 222.081143 91.458456 
L 239.067387 114.472612 
L 256.053631 191.65011 
L 273.039875 191.65011 
L 290.026119 191.65011 
L 307.012362 36.159091 
L 323.998606 44.177748 
L 340.98485 44.177748 
L 357.971094 58.735463 
L 374.957338 102.685685 
L 391.943581 116.439871 
L 408.929825 116.439871 
L 425.916069 116.439871 
L 442.902313 124.314447 
L 459.888556 157.430892 
L 476.8748 157.430892 
L 493.861044 157.430892 
L 510.847288 157.430892 
L 527.833532 172.476265 
L 544.819775 245.940909 
L 561.806019 245.940909 
L 578.792263 245.940909 
L 595.778507 245.940909 
L 612.764751 245.940909 
L 629.750994 245.940909 
" clip-path="url(#pe482fd8fdb)" style="fill: none; stroke: #58a6ff; stroke-width: 2; stroke-linecap: square"/>
   </g>
   <g id="patch_3">
    <path d="M 59.013203 256.43 
L 59.013203 25.67 
" style="fill: none; stroke: #21262d; stroke-width: 0.8; stroke-linejoin: miter; stroke-linecap: square"/>
   </g>
   <g id="patch_4">
    <path d="M 656.928984 256.43 
L 656.928984 25.67 
" style="fill: none; stroke: #21262d; stroke-width: 0.8; stroke-linejoin: miter; stroke-linecap: square"/>
   </g>
   <g id="patch_5">
    <path d="M 59.013203 256.43 
L 656.928984 256.43 
" style="fill: none; stroke: #21262d; stroke-width: 0.8; stroke-linejoin: miter; stroke-linecap: square"/>
   </g>
   <g id="patch_6">
    <path d="M 59.013203 25.67 
L 656.928984 25.67 
" style="fill: none; stroke: #21262d; stroke-width: 0.8; stroke-linejoin: miter; stroke-linecap: square"/>
   </g>
   <g id="text_19">
    <!-- ▲ -->
    <g style="fill: #3fb950" transform="translate(183.878812 93.415384) scale(0.11 -0.11)">
     <defs>
      <path id="DejaVuSans-e89" d="M 19 -788 
L 2459 4113 
L 4903 -788 
L 19 -788 
z
" transform="scale(0.015625)"/>
     </defs>
     <use xlink:href="#DejaVuSans-e89"/>
    </g>
   </g>
   <g id="text_20">
    <!-- ▼ -->
    <g style="fill: #f85149" transform="translate(251.823787 200.007532) scale(0.11 -0.11)">
     <defs>
      <path id="DejaVuSans-e93" d="M 19 4113 
L 4903 4113 
L 2459 -788 
L 19 4113 
z
" transform="scale(0.015625)"/>
     </defs>
     <use xlink:href="#DejaVuSans-e93"/>
    </g>
   </g>
   <g id="text_21">
    <!-- ▲ -->
    <g style="fill: #3fb950" transform="translate(285.796275 189.007532) scale(0.11 -0.11)">
     <use xlink:href="#DejaVuSans-e89"/>
    </g>
   </g>
   <g id="text_22">
    <!-- ▼ -->
    <g style="fill: #f85149" transform="translate(387.713738 124.797293) scale(0.11 -0.11)">
     <use xlink:href="#DejaVuSans-e93"/>
    </g>
   </g>
   <g id="text_23">
    <!-- ▲ -->
    <g style="fill: #3fb950" transform="translate(421.686225 113.797293) scale(0.11 -0.11)">
     <use xlink:href="#DejaVuSans-e89"/>
    </g>
   </g>
   <g id="text_24">
    <!-- ▼ -->
    <g style="fill: #f85149" transform="translate(455.658713 165.788314) scale(0.11 -0.11)">
     <use xlink:href="#DejaVuSans-e93"/>
    </g>
   </g>
   <g id="text_25">
    <!-- ▲ -->
    <g style="fill: #3fb950" transform="translate(506.617444 154.788314) scale(0.11 -0.11)">
     <use xlink:href="#DejaVuSans-e89"/>
    </g>
   </g>
   <g id="text_26">
    <!-- ▼ -->
    <g style="fill: #f85149" transform="translate(540.589932 254.298331) scale(0.11 -0.11)">
     <use xlink:href="#DejaVuSans-e93"/>
    </g>
   </g>
   <g id="text_27">
    <!-- ▲ -->
    <g style="fill: #3fb950" transform="translate(625.521151 243.298331) scale(0.11 -0.11)">
     <use xlink:href="#DejaVuSans-e89"/>
    </g>
   </g>
   <g id="text_28">
    <!-- AI Gold Fund  |  $9,729.53  ($-270.47) -->
    <g style="fill: #e6edf3" transform="translate(263.151094 15.67) scale(0.11 -0.11)">
     <defs>
      <path id="DejaVuSans-24" d="M 2188 4044 
L 1331 1722 
L 3047 1722 
L 2188 4044 
z
M 1831 4666 
L 2547 4666 
L 4325 0 
L 3669 0 
L 3244 1197 
L 1141 1197 
L 716 0 
L 50 0 
L 1831 4666 
z
" transform="scale(0.015625)"/>
      <path id="DejaVuSans-2c" d="M 628 4666 
L 1259 4666 
L 1259 0 
L 628 0 
L 628 4666 
z
" transform="scale(0.015625)"/>
      <path id="DejaVuSans-2a" d="M 3809 666 
L 3809 1919 
L 2778 1919 
L 2778 2438 
L 4434 2438 
L 4434 434 
Q 4069 175 3628 42 
Q 3188 -91 2688 -91 
Q 1594 -91 976 548 
Q 359 1188 359 2328 
Q 359 3472 976 4111 
Q 1594 4750 2688 4750 
Q 3144 4750 3555 4637 
Q 3966 4525 4313 4306 
L 4313 3634 
Q 3963 3931 3569 4081 
Q 3175 4231 2741 4231 
Q 1884 4231 1454 3753 
Q 1025 3275 1025 2328 
Q 1025 1384 1454 906 
Q 1884 428 2741 428 
Q 3075 428 3337 486 
Q 3600 544 3809 666 
z
" transform="scale(0.015625)"/>
      <path id="DejaVuSans-47" d="M 2906 2969 
L 2906 4863 
L 3481 4863 
L 3481 0 
L 2906 0 
L 2906 525 
Q 2725 213 2448 61 
Q 2172 -91 1784 -91 
Q 1150 -91 751 415 
Q 353 922 353 1747 
Q 353 2572 751 3078 
Q 1150 3584 1784 3584 
Q 2172 3584 2448 3432 
Q 2725 3281 2906 2969 
z
M 947 1747 
Q 947 1113 1208 752 
Q 1469 391 1925 391 
Q 2381 391 2643 752 
Q 2906 1113 2906 1747 
Q 2906 2381 2643 2742 
Q 2381 3103 1925 3103 
Q 1469 3103 1208 2742 
Q 947 2381 947 1747 
z
" transform="scale(0.015625)"/>
      <path id="DejaVuSans-29" d="M 628 4666 
L 3309 4666 
L 3309 4134 
L 1259 4134 
L 1259 2759 
L 3109 2759 
L 3109 2228 
L 1259 2228 
L 1259 0 
L 628 0 
L 628 4666 
z
" transform="scale(0.015625)"/>
      <path id="DejaVuSans-58" d="M 544 1381 
L 544 3500 
L 1119 3500 
L 1119 1403 
Q 1119 906 1312 657 
Q 1506 409 1894 409 
Q 2359 409 2629 706 
Q 2900 1003 2900 1516 
L 2900 3500 
L 3475 3500 
L 3475 0 
L 2900 0 
L 2900 538 
Q 2691 219 2414 64 
Q 2138 -91 1772 -91 
Q 1169 -91 856 284 
Q 544 659 544 1381 
z
M 1991 3584 
L 1991 3584 
z
" transform="scale(0.015625)"/>
      <path id="DejaVuSans-51" d="M 3513 2113 
L 3513 0 
L 2938 0 
L 2938 2094 
Q 2938 2591 2744 2837 
Q 2550 3084 2163 3084 
Q 1697 3084 1428 2787 
Q 1159 2491 1159 1978 
L 1159 0 
L 581 0 
L 581 3500 
L 1159 3500 
L 1159 2956 
Q 1366 3272 1645 3428 
Q 1925 3584 2291 3584 
Q 2894 3584 3203 3211 
Q 3513 2838 3513 2113 
z
" transform="scale(0.015625)"/>
      <path id="DejaVuSans-5f" d="M 1344 4891 
L 1344 -1509 
L 813 -1509 
L 813 4891 
L 1344 4891 
z
" transform="scale(0.015625)"/>
      <path id="DejaVuSans-f" d="M 750 794 
L 1409 794 
L 1409 256 
L 897 -744 
L 494 -744 
L 750 256 
L 750 794 
z
" transform="scale(0.015625)"/>
      <path id="DejaVuSans-11" d="M 684 794 
L 1344 794 
L 1344 0 
L 684 0 
L 684 794 
z
" transform="scale(0.015625)"/>
      <path id="DejaVuSans-10" d="M 313 2009 
L 1997 2009 
L 1997 1497 
L 313 1497 
L 313 2009 
z
" transform="scale(0.015625)"/>
      <path id="DejaVuSans-17" d="M 2419 4116 
L 825 1625 
L 2419 1625 
L 2419 4116 
z
M 2253 4666 
L 3047 4666 
L 3047 1625 
L 3713 1625 
L 3713 1100 
L 3047 1100 
L 3047 0 
L 2419 0 
L 2419 1100 
L 313 1100 
L 313 1709 
L 2253 4666 
z
" transform="scale(0.015625)"/>
     </defs>
     <use xlink:href="#DejaVuSans-24" transform="translate(0 0.578125)"/>
     <use xlink:href="#DejaVuSans-2c" transform="translate(68.408203 0.578125)"/>
     <use xlink:href="#DejaVuSans-3" transform="translate(97.900391 0.578125)"/>
     <use xlink:href="#DejaVuSans-2a" transform="translate(129.6875 0.578125)"/>
     <use xlink:href="#DejaVuSans-52" transform="translate(207.177734 0.578125)"/>
     <use xlink:href="#DejaVuSans-4f" transform="translate(268.359375 0.578125)"/>
     <use xlink:href="#DejaVuSans-47" transform="translate(296.142578 0.578125)"/>
     <use xlink:href="#DejaVuSans-3" transform="translate(359.619141 0.578125)"/>
     <use xlink:href="#DejaVuSans-29" transform="translate(391.40625 0.578125)"/>
     <use xlink:href="#DejaVuSans-58" transform="translate(443.925781 0.578125)"/>
     <use xlink:href="#DejaVuSans-51" transform="translate(507.304688 0.578125)"/>
     <use xlink:href="#DejaVuSans-47" transform="translate(570.683594 0.578125)"/>
     <use xlink:href="#DejaVuSans-3" transform="translate(634.160156 0.578125)"/>
     <use xlink:href="#DejaVuSans-3" transform="translate(665.947266 0.578125)"/>
     <use xlink:href="#DejaVuSans-5f" transform="translate(697.734375 0.578125)"/>
     <use xlink:href="#DejaVuSans-3" transform="translate(731.425781 0.578125)"/>
     <use xlink:href="#DejaVuSans-3" transform="translate(763.212891 0.578125)"/>
     <use xlink:href="#DejaVuSans-1c" transform="translate(795 0.578125)"/>
     <use xlink:href="#DejaVuSans-f" transform="translate(858.623047 0.578125)"/>
     <use xlink:href="#DejaVuSans-1a" transform="translate(909.892578 0.578125)"/>
     <use xlink:href="#DejaVuSans-15" transform="translate(973.515625 0.578125)"/>
     <use xlink:href="#DejaVuSans-1c" transform="translate(1037.138672 0.578125)"/>
     <use xlink:href="#DejaVuSans-11" transform="translate(1100.761719 0.578125)"/>
     <use xlink:href="#DejaVuSans-18" transform="translate(1132.548828 0.578125)"/>
     <use xlink:href="#DejaVuSans-16" transform="translate(1196.171875 0.578125)"/>
     <use xlink:href="#DejaVuSans-b" transform="translate(1259.794922 0.578125)"/>
     <use xlink:href="#DejaVuSans-10" transform="translate(1298.808594 0.578125)"/>
     <use xlink:href="#DejaVuSans-15" transform="translate(1334.892578 0.578125)"/>
     <use xlink:href="#DejaVuSans-1a" transform="translate(1398.515625 0.578125)"/>
     <use xlink:href="#DejaVuSans-13" transform="translate(1462.138672 0.578125)"/>
     <use xlink:href="#DejaVuSans-11" transform="translate(1525.761719 0.578125)"/>
     <use xlink:href="#DejaVuSans-17" transform="translate(1557.548828 0.578125)"/>
     <use xlink:href="#DejaVuSans-1a" transform="translate(1621.171875 0.578125)"/>
     <use xlink:href="#DejaVuSans-c" transform="translate(1684.794922 0.578125)"/>
    </g>
   </g>
   <g id="legend_1">
    <g id="patch_7">
     <path d="M 64.613203 56.07125 
L 149.001953 56.07125 
Q 150.601953 56.07125 150.601953 54.47125 
L 150.601953 31.27 
Q 150.601953 29.67 149.001953 29.67 
L 64.613203 29.67 
Q 63.013203 29.67 63.013203 31.27 
L 63.013203 54.47125 
Q 63.013203 56.07125 64.613203 56.07125 
z
" style="fill: #161b22; opacity: 0.8; stroke: #cccccc; stroke-linejoin: miter"/>
    </g>
    <g id="line2d_36">
     <path d="M 66.213203 36.14875 
L 74.213203 36.14875 
L 82.213203 36.14875 
" style="fill: none; stroke: #58a6ff; stroke-width: 2; stroke-linecap: square"/>
    </g>
    <g id="text_29">
     <!-- Portfolio (USD) -->
     <g style="fill: #e6edf3" transform="translate(88.613203 38.94875) scale(0.08 -0.08)">
      <defs>
       <path id="DejaVuSans-38" d="M 556 4666 
L 1191 4666 
L 1191 1831 
Q 1191 1081 1462 751 
Q 1734 422 2344 422 
Q 2950 422 3222 751 
Q 3494 1081 3494 1831 
L 3494 4666 
L 4128 4666 
L 4128 1753 
Q 4128 841 3676 375 
Q 3225 -91 2344 -91 
Q 1459 -91 1007 375 
Q 556 841 556 1753 
L 556 4666 
z
" transform="scale(0.015625)"/>
       <path id="DejaVuSans-36" d="M 3425 4513 
L 3425 3897 
Q 3066 4069 2747 4153 
Q 2428 4238 2131 4238 
Q 1616 4238 1336 4038 
Q 1056 3838 1056 3469 
Q 1056 3159 1242 3001 
Q 1428 2844 1947 2747 
L 2328 2669 
Q 3034 2534 3370 2195 
Q 3706 1856 3706 1288 
Q 3706 609 3251 259 
Q 2797 -91 1919 -91 
Q 1588 -91 1214 -16 
Q 841 59 441 206 
L 441 856 
Q 825 641 1194 531 
Q 1563 422 1919 422 
Q 2459 422 2753 634 
Q 3047 847 3047 1241 
Q 3047 1584 2836 1778 
Q 2625 1972 2144 2069 
L 1759 2144 
Q 1053 2284 737 2584 
Q 422 2884 422 3419 
Q 422 4038 858 4394 
Q 1294 4750 2059 4750 
Q 2388 4750 2728 4690 
Q 3069 4631 3425 4513 
z
" transform="scale(0.015625)"/>
       <path id="DejaVuSans-27" d="M 1259 4147 
L 1259 519 
L 2022 519 
Q 2988 519 3436 956 
Q 3884 1394 3884 2338 
Q 3884 3275 3436 3711 
Q 2988 4147 2022 4147 
L 1259 4147 
z
M 628 4666 
L 1925 4666 
Q 3281 4666 3915 4102 
Q 4550 3538 4550 2338 
Q 4550 1131 3912 565 
Q 3275 0 1925 0 
L 628 0 
L 628 4666 
z
" transform="scale(0.015625)"/>
      </defs>
      <use xlink:href="#DejaVuSans-33"/>
      <use xlink:href="#DejaVuSans-52" transform="translate(56.734375 0)"/>
      <use xlink:href="#DejaVuSans-55" transform="translate(117.921875 0)"/>
      <use xlink:href="#DejaVuSans-57" transform="translate(159.03125 0)"/>
      <use xlink:href="#DejaVuSans-49" transform="translate(198.234375 0)"/>
      <use xlink:href="#DejaVuSans-52" transform="translate(233.4375 0)"/>
      <use xlink:href="#DejaVuSans-4f" transform="translate(294.625 0)"/>
      <use xlink:href="#DejaVuSans-4c" transform="translate(322.40625 0)"/>
      <use xlink:href="#DejaVuSans-52" transform="translate(350.1875 0)"/>
      <use xlink:href="#DejaVuSans-3" transform="translate(411.375 0)"/>
      <use xlink:href="#DejaVuSans-b" transform="translate(443.15625 0)"/>
      <use xlink:href="#DejaVuSans-38" transform="translate(482.171875 0)"/>
      <use xlink:href="#DejaVuSans-36" transform="translate(555.359375 0)"/>
      <use xlink:href="#DejaVuSans-27" transform="translate(618.84375 0)"/>
      <use xlink:href="#DejaVuSans-c" transform="translate(695.84375 0)"/>
     </g>
    </g>
    <g id="line2d_37">
     <path d="M 66.213203 48.149375 
L 74.213203 48.149375 
L 82.213203 48.149375 
" style="fill: none; stroke-dasharray: 5.55,2.4; stroke-dashoffset: 0; stroke: #e3b341; stroke-width: 1.5"/>
    </g>
    <g id="text_30">
     <!-- Gold ($/oz) -->
     <g style="fill: #e6edf3" transform="translate(88.613203 50.949375) scale(0.08 -0.08)">
      <defs>
       <path id="DejaVuSans-5d" d="M 353 3500 
L 3084 3500 
L 3084 2975 
L 922 459 
L 3084 459 
L 3084 0 
L 275 0 
L 275 525 
L 2438 3041 
L 353 3041 
L 353 3500 
z
" transform="scale(0.015625)"/>
      </defs>
      <use xlink:href="#DejaVuSans-2a"/>
      <use xlink:href="#DejaVuSans-52" transform="translate(77.484375 0)"/>
      <use xlink:href="#DejaVuSans-4f" transform="translate(138.671875 0)"/>
      <use xlink:href="#DejaVuSans-47" transform="translate(166.453125 0)"/>
      <use xlink:href="#DejaVuSans-3" transform="translate(229.9375 0)"/>
      <use xlink:href="#DejaVuSans-b" transform="translate(261.71875 0)"/>
      <use xlink:href="#DejaVuSans-7" transform="translate(300.734375 0)"/>
      <use xlink:href="#DejaVuSans-12" transform="translate(364.359375 0)"/>
      <use xlink:href="#DejaVuSans-52" transform="translate(398.046875 0)"/>
      <use xlink:href="#DejaVuSans-5d" transform="translate(459.234375 0)"/>
      <use xlink:href="#DejaVuSans-c" transform="translate(511.71875 0)"/>
     </g>
    </g>
   </g>
  </g>
  <g id="axes_2">
   <g id="matplotlib.axis_3">
    <g id="ytick_9">
     <g id="line2d_38">
      <defs>
       <path id="m51ee0c5d41" d="M 0 0 
L 3.5 0 
" style="stroke: #000000; stroke-width: 0.8"/>
      </defs>
      <g>
       <use xlink:href="#m51ee0c5d41" x="656.928984" y="245.940909" style="stroke: #000000; stroke-width: 0.8"/>
      </g>
     </g>
     <g id="text_31">
      <!-- 0 -->
      <g style="fill: #e3b341" transform="translate(663.928984 249.739737) scale(0.1 -0.1)">
       <use xlink:href="#DejaVuSans-13"/>
      </g>
     </g>
    </g>
    <g id="ytick_10">
     <g id="line2d_39">
      <g>
       <use xlink:href="#m51ee0c5d41" x="656.928984" y="195.913048" style="stroke: #000000; stroke-width: 0.8"/>
      </g>
     </g>
     <g id="text_32">
      <!-- 1000 -->
      <g style="fill: #e3b341" transform="translate(663.928984 199.711877) scale(0.1 -0.1)">
       <use xlink:href="#DejaVuSans-14"/>
       <use xlink:href="#DejaVuSans-13" transform="translate(63.625 0)"/>
       <use xlink:href="#DejaVuSans-13" transform="translate(127.25 0)"/>
       <use xlink:href="#DejaVuSans-13" transform="translate(190.875 0)"/>
      </g>
     </g>
    </g>
    <g id="ytick_11">
     <g id="line2d_40">
      <g>
       <use xlink:href="#m51ee0c5d41" x="656.928984" y="145.885188" style="stroke: #000000; stroke-width: 0.8"/>
      </g>
     </g>
     <g id="text_33">
      <!-- 2000 -->
      <g style="fill: #e3b341" transform="translate(663.928984 149.684016) scale(0.1 -0.1)">
       <use xlink:href="#DejaVuSans-15"/>
       <use xlink:href="#DejaVuSans-13" transform="translate(63.625 0)"/>
       <use xlink:href="#DejaVuSans-13" transform="translate(127.25 0)"/>
       <use xlink:href="#DejaVuSans-13" transform="translate(190.875 0)"/>
      </g>
     </g>
    </g>
    <g id="ytick_12">
     <g id="line2d_41">
      <g>
       <use xlink:href="#m51ee0c5d41" x="656.928984" y="95.857327" style="stroke: #000000; stroke-width: 0.8"/>
      </g>
     </g>
     <g id="text_34">
      <!-- 3000 -->
      <g style="fill: #e3b341" transform="translate(663.928984 99.656155) scale(0.1 -0.1)">
       <use xlink:href="#DejaVuSans-16"/>
       <use xlink:href="#DejaVuSans-13" transform="translate(63.625 0)"/>
       <use xlink:href="#DejaVuSans-13" transform="translate(127.25 0)"/>
       <use xlink:href="#DejaVuSans-13" transform="translate(190.875 0)"/>
      </g>
     </g>
    </g>
    <g id="ytick_13">
     <g id="line2d_42">
      <g>
       <use xlink:href="#m51ee0c5d41" x="656.928984" y="45.829467" style="stroke: #000000; stroke-width: 0.8"/>
      </g>
     </g>
     <g id="text_35">
      <!-- 4000 -->
      <g style="fill: #e3b341" transform="translate(663.928984 49.628295) scale(0.1 -0.1)">
       <use xlink:href="#DejaVuSans-17"/>
       <use xlink:href="#DejaVuSans-13" transform="translate(63.625 0)"/>
       <use xlink:href="#DejaVuSans-13" transform="translate(127.25 0)"/>
       <use xlink:href="#DejaVuSans-13" transform="translate(190.875 0)"/>
      </g>
     </g>
    </g>
    <g id="text_36">
     <!-- Gold ($/oz) -->
     <g style="fill: #e3b341" transform="translate(700.217578 165.833047) rotate(-90) scale(0.09 -0.09)">
      <use xlink:href="#DejaVuSans-2a"/>
      <use xlink:href="#DejaVuSans-52" transform="translate(77.484375 0)"/>
      <use xlink:href="#DejaVuSans-4f" transform="translate(138.671875 0)"/>
      <use xlink:href="#DejaVuSans-47" transform="translate(166.453125 0)"/>
      <use xlink:href="#DejaVuSans-3" transform="translate(229.9375 0)"/>
      <use xlink:href="#DejaVuSans-b" transform="translate(261.71875 0)"/>
      <use xlink:href="#DejaVuSans-7" transform="translate(300.734375 0)"/>
      <use xlink:href="#DejaVuSans-12" transform="translate(364.359375 0)"/>
      <use xlink:href="#DejaVuSans-52" transform="translate(398.046875 0)"/>
      <use xlink:href="#DejaVuSans-5d" transform="translate(459.234375 0)"/>
      <use xlink:href="#DejaVuSans-c" transform="translate(511.71875 0)"/>
     </g>
    </g>
   </g>
   <g id="line2d_43">
    <path d="M 86.191193 245.940909 
L 86.191193 245.940909 
L 103.177437 245.940909 
L 120.163681 245.940909 
L 137.149925 245.940909 
L 154.136168 245.940909 
L 154.136168 45.93453 
L 171.122412 45.709405 
L 188.108656 44.303617 
L 188.108656 41.181883 
L 205.0949 40.676597 
L 222.081143 41.011793 
L 239.067387 41.862255 
L 256.053631 44.713843 
L 273.039875 46.379773 
L 290.026119 41.982329 
L 307.012362 36.159091 
L 323.998606 36.459258 
L 340.98485 36.459258 
L 357.971094 37.004557 
L 374.957338 38.650469 
L 391.943581 39.165746 
L 408.929825 42.507622 
L 425.916069 39.085721 
L 442.902313 39.38088 
L 459.888556 40.621561 
L 476.8748 42.487603 
L 493.861044 44.833917 
L 510.847288 43.673261 
L 527.833532 44.228575 
L 544.819775 46.940083 
L 561.806019 44.678826 
L 578.792263 45.194115 
L 595.778507 44.413676 
L 612.764751 43.608234 
L 629.750994 39.14574 
" clip-path="url(#pe482fd8fdb)" style="fill: none; stroke-dasharray: 5.55,2.4; stroke-dashoffset: 0; stroke: #e3b341; stroke-width: 1.5"/>
   </g>
   <g id="patch_8">
    <path d="M 59.013203 256.43 
L 59.013203 25.67 
" style="fill: none; stroke: #21262d; stroke-width: 0.8; stroke-linejoin: miter; stroke-linecap: square"/>
   </g>
   <g id="patch_9">
    <path d="M 656.928984 256.43 
L 656.928984 25.67 
" style="fill: none; stroke: #21262d; stroke-width: 0.8; stroke-linejoin: miter; stroke-linecap: square"/>
   </g>
   <g id="patch_10">
    <path d="M 59.013203 256.43 
L 656.928984 256.43 
" style="fill: none; stroke: #21262d; stroke-width: 0.8; stroke-linejoin: miter; stroke-linecap: square"/>
   </g>
   <g id="patch_11">
    <path d="M 59.013203 25.67 
L 656.928984 25.67 
" style="fill: none; stroke: #21262d; stroke-width: 0.8; stroke-linejoin: miter; stroke-linecap: square"/>
   </g>
  </g>
 </g>
 <defs>
  <clipPath id="pe482fd8fdb">
   <rect x="59.013203" y="25.67" width="597.915781" height="230.76"/>
  </clipPath>
 </defs>
</svg>
