<?xml version="1.0" encoding="utf-8" standalone="no"?>
<!DOCTYPE svg PUBLIC "-//W3C//DTD SVG 1.1//EN"
  "http://www.w3.org/Graphics/SVG/1.1/DTD/svg11.dtd">
<svg xmlns:xlink="http://www.w3.org/1999/xlink" width="709.735pt" height="280.63pt" viewBox="0 0 709.735 280.63" xmlns="http://www.w3.org/2000/svg" version="1.1">
 <metadata>
  <rdf:RDF xmlns:dc="http://purl.org/dc/elements/1.1/" xmlns:cc="http://creativecommons.org/ns#" xmlns:rdf="http://www.w3.org/1999/02/22-rdf-syntax-ns#">
   <cc:Work>
    <dc:type rdf:resource="http://purl.org/dc/dcmitype/StillImage"/>
    <dc:date>2026-06-20T22:26:46.889467</dc:date>
    <dc:format>image/svg+xml</dc:format>
    <dc:creator>
     <cc:Agent>
      <dc:title>Matplotlib v3.11.0, https://matplotlib.org/</dc:title>
     </cc:Agent>
    </dc:creator>
   </cc:Work>
  </rdf:RDF>
 </metadata>
 <defs>
  <style type="text/css">*{stroke-linejoin: round; stroke-linecap: butt}</style>
 </defs>
 <g id="figure_1">
  <g id="patch_1">
   <path d="M 0 280.63 
L 709.735 280.63 
L 709.735 0 
L 0 0 
z
" style="fill: #0d1117"/>
  </g>
  <g id="axes_1">
   <g id="patch_2">
    <path d="M 59.013203 256.43 
L 651.888984 256.43 
L 651.888984 25.67 
L 59.013203 25.67 
z
" style="fill: #0d1117"/>
   </g>
   <g id="matplotlib.axis_1">
    <g id="xtick_1">
     <g id="line2d_1">
      <path d="M 90.022895 256.43 
L 90.022895 25.67 
" clip-path="url(#p1b9ac1a1f8)" style="fill: none; stroke-dasharray: 1.85,0.8; stroke-dashoffset: 0; stroke: #21262d; stroke-width: 0.5"/>
     </g>
     <g id="line2d_2">
      <defs>
       <path id="m33c9699d52" d="M 0 0 
L 0 3.5 
" style="stroke: #000000; stroke-width: 0.8"/>
      </defs>
      <g>
       <use xlink:href="#m33c9699d52" x="90.022895" y="256.43" style="stroke: #000000; stroke-width: 0.8"/>
      </g>
     </g>
     <g id="text_1">
      <!-- 07/01 -->
      <g style="fill: #8b949e" transform="translate(75.61352 271.027656) scale(0.1 -0.1)">
       <defs>
        <path id="DejaVuSans-13" d="M 2034 4250 
Q 1547 4250 1301 3770 
Q 1056 3291 1056 2328 
Q 1056 1369 1301 889 
Q 1547 409 2034 409 
Q 2525 409 2770 889 
Q 3016 1369 3016 2328 
Q 3016 3291 2770 3770 
Q 2525 4250 2034 4250 
z
M 2034 4750 
Q 2819 4750 3233 4129 
Q 3647 3509 3647 2328 
Q 3647 1150 3233 529 
Q 2819 -91 2034 -91 
Q 1250 -91 836 529 
Q 422 1150 422 2328 
Q 422 3509 836 4129 
Q 1250 4750 2034 4750 
z
" transform="scale(0.015625)"/>
        <path id="DejaVuSans-1a" d="M 525 4666 
L 3525 4666 
L 3525 4397 
L 1831 0 
L 1172 0 
L 2766 4134 
L 525 4134 
L 525 4666 
z
" transform="scale(0.015625)"/>
        <path id="DejaVuSans-12" d="M 1625 4666 
L 2156 4666 
L 531 -594 
L 0 -594 
L 1625 4666 
z
" transform="scale(0.015625)"/>
        <path id="DejaVuSans-14" d="M 794 531 
L 1825 531 
L 1825 4091 
L 703 3866 
L 703 4441 
L 1819 4666 
L 2450 4666 
L 2450 531 
L 3481 531 
L 3481 0 
L 794 0 
L 794 531 
z
" transform="scale(0.015625)"/>
       </defs>
       <use xlink:href="#DejaVuSans-13"/>
       <use xlink:href="#DejaVuSans-1a" transform="translate(63.625 0)"/>
       <use xlink:href="#DejaVuSans-12" transform="translate(127.25 0)"/>
       <use xlink:href="#DejaVuSans-13" transform="translate(160.9375 0)"/>
       <use xlink:href="#DejaVuSans-14" transform="translate(224.5625 0)"/>
      </g>
     </g>
    </g>
    <g id="xtick_2">
     <g id="line2d_3">
      <path d="M 157.948888 256.43 
L 157.948888 25.67 
" clip-path="url(#p1b9ac1a1f8)" style="fill: none; stroke-dasharray: 1.85,0.8; stroke-dashoffset: 0; stroke: #21262d; stroke-width: 0.5"/>
     </g>
     <g id="line2d_4">
      <g>
       <use xlink:href="#m33c9699d52" x="157.948888" y="256.43" style="stroke: #000000; stroke-width: 0.8"/>
      </g>
     </g>
     <g id="text_2">
      <!-- 01/01 -->
      <g style="fill: #8b949e" transform="translate(143.539513 271.027656) scale(0.1 -0.1)">
       <use xlink:href="#DejaVuSans-13"/>
       <use xlink:href="#DejaVuSans-14" transform="translate(63.625 0)"/>
       <use xlink:href="#DejaVuSans-12" transform="translate(127.25 0)"/>
       <use xlink:href="#DejaVuSans-13" transform="translate(160.9375 0)"/>
       <use xlink:href="#DejaVuSans-14" transform="translate(224.5625 0)"/>
      </g>
     </g>
    </g>
    <g id="xtick_3">
     <g id="line2d_5">
      <path d="M 224.767391 256.43 
L 224.767391 25.67 
" clip-path="url(#p1b9ac1a1f8)" style="fill: none; stroke-dasharray: 1.85,0.8; stroke-dashoffset: 0; stroke: #21262d; stroke-width: 0.5"/>
     </g>
     <g id="line2d_6">
      <g>
       <use xlink:href="#m33c9699d52" x="224.767391" y="256.43" style="stroke: #000000; stroke-width: 0.8"/>
      </g>
     </g>
     <g id="text_3">
      <!-- 07/01 -->
      <g style="fill: #8b949e" transform="translate(210.358016 271.027656) scale(0.1 -0.1)">
       <use xlink:href="#DejaVuSans-13"/>
       <use xlink:href="#DejaVuSans-1a" transform="translate(63.625 0)"/>
       <use xlink:href="#DejaVuSans-12" transform="translate(127.25 0)"/>
       <use xlink:href="#DejaVuSans-13" transform="translate(160.9375 0)"/>
       <use xlink:href="#DejaVuSans-14" transform="translate(224.5625 0)"/>
      </g>
     </g>
    </g>
    <g id="xtick_4">
     <g id="line2d_7">
      <path d="M 292.693383 256.43 
L 292.693383 25.67 
" clip-path="url(#p1b9ac1a1f8)" style="fill: none; stroke-dasharray: 1.85,0.8; stroke-dashoffset: 0; stroke: #21262d; stroke-width: 0.5"/>
     </g>
     <g id="line2d_8">
      <g>
       <use xlink:href="#m33c9699d52" x="292.693383" y="256.43" style="stroke: #000000; stroke-width: 0.8"/>
      </g>
     </g>
     <g id="text_4">
      <!-- 01/01 -->
      <g style="fill: #8b949e" transform="translate(278.284008 271.027656) scale(0.1 -0.1)">
       <use xlink:href="#DejaVuSans-13"/>
       <use xlink:href="#DejaVuSans-14" transform="translate(63.625 0)"/>
       <use xlink:href="#DejaVuSans-12" transform="translate(127.25 0)"/>
       <use xlink:href="#DejaVuSans-13" transform="translate(160.9375 0)"/>
       <use xlink:href="#DejaVuSans-14" transform="translate(224.5625 0)"/>
      </g>
     </g>
    </g>
    <g id="xtick_5">
     <g id="line2d_9">
      <path d="M 359.511887 256.43 
L 359.511887 25.67 
" clip-path="url(#p1b9ac1a1f8)" style="fill: none; stroke-dasharray: 1.85,0.8; stroke-dashoffset: 0; stroke: #21262d; stroke-width: 0.5"/>
     </g>
     <g id="line2d_10">
      <g>
       <use xlink:href="#m33c9699d52" x="359.511887" y="256.43" style="stroke: #000000; stroke-width: 0.8"/>
      </g>
     </g>
     <g id="text_5">
      <!-- 07/01 -->
      <g style="fill: #8b949e" transform="translate(345.102512 271.027656) scale(0.1 -0.1)">
       <use xlink:href="#DejaVuSans-13"/>
       <use xlink:href="#DejaVuSans-1a" transform="translate(63.625 0)"/>
       <use xlink:href="#DejaVuSans-12" transform="translate(127.25 0)"/>
       <use xlink:href="#DejaVuSans-13" transform="translate(160.9375 0)"/>
       <use xlink:href="#DejaVuSans-14" transform="translate(224.5625 0)"/>
      </g>
     </g>
    </g>
    <g id="xtick_6">
     <g id="line2d_11">
      <path d="M 427.437879 256.43 
L 427.437879 25.67 
" clip-path="url(#p1b9ac1a1f8)" style="fill: none; stroke-dasharray: 1.85,0.8; stroke-dashoffset: 0; stroke: #21262d; stroke-width: 0.5"/>
     </g>
     <g id="line2d_12">
      <g>
       <use xlink:href="#m33c9699d52" x="427.437879" y="256.43" style="stroke: #000000; stroke-width: 0.8"/>
      </g>
     </g>
     <g id="text_6">
      <!-- 01/01 -->
      <g style="fill: #8b949e" transform="translate(413.028504 271.027656) scale(0.1 -0.1)">
       <use xlink:href="#DejaVuSans-13"/>
       <use xlink:href="#DejaVuSans-14" transform="translate(63.625 0)"/>
       <use xlink:href="#DejaVuSans-12" transform="translate(127.25 0)"/>
       <use xlink:href="#DejaVuSans-13" transform="translate(160.9375 0)"/>
       <use xlink:href="#DejaVuSans-14" transform="translate(224.5625 0)"/>
      </g>
     </g>
    </g>
    <g id="xtick_7">
     <g id="line2d_13">
      <path d="M 494.256383 256.43 
L 494.256383 25.67 
" clip-path="url(#p1b9ac1a1f8)" style="fill: none; stroke-dasharray: 1.85,0.8; stroke-dashoffset: 0; stroke: #21262d; stroke-width: 0.5"/>
     </g>
     <g id="line2d_14">
      <g>
       <use xlink:href="#m33c9699d52" x="494.256383" y="256.43" style="stroke: #000000; stroke-width: 0.8"/>
      </g>
     </g>
     <g id="text_7">
      <!-- 07/01 -->
      <g style="fill: #8b949e" transform="translate(479.847008 271.027656) scale(0.1 -0.1)">
       <use xlink:href="#DejaVuSans-13"/>
       <use xlink:href="#DejaVuSans-1a" transform="translate(63.625 0)"/>
       <use xlink:href="#DejaVuSans-12" transform="translate(127.25 0)"/>
       <use xlink:href="#DejaVuSans-13" transform="translate(160.9375 0)"/>
       <use xlink:href="#DejaVuSans-14" transform="translate(224.5625 0)"/>
      </g>
     </g>
    </g>
    <g id="xtick_8">
     <g id="line2d_15">
      <path d="M 562.182375 256.43 
L 562.182375 25.67 
" clip-path="url(#p1b9ac1a1f8)" style="fill: none; stroke-dasharray: 1.85,0.8; stroke-dashoffset: 0; stroke: #21262d; stroke-width: 0.5"/>
     </g>
     <g id="line2d_16">
      <g>
       <use xlink:href="#m33c9699d52" x="562.182375" y="256.43" style="stroke: #000000; stroke-width: 0.8"/>
      </g>
     </g>
     <g id="text_8">
      <!-- 01/01 -->
      <g style="fill: #8b949e" transform="translate(547.773 271.027656) scale(0.1 -0.1)">
       <use xlink:href="#DejaVuSans-13"/>
       <use xlink:href="#DejaVuSans-14" transform="translate(63.625 0)"/>
       <use xlink:href="#DejaVuSans-12" transform="translate(127.25 0)"/>
       <use xlink:href="#DejaVuSans-13" transform="translate(160.9375 0)"/>
       <use xlink:href="#DejaVuSans-14" transform="translate(224.5625 0)"/>
      </g>
     </g>
    </g>
    <g id="xtick_9">
     <g id="line2d_17">
      <path d="M 629.370041 256.43 
L 629.370041 25.67 
" clip-path="url(#p1b9ac1a1f8)" style="fill: none; stroke-dasharray: 1.85,0.8; stroke-dashoffset: 0; stroke: #21262d; stroke-width: 0.5"/>
     </g>
     <g id="line2d_18">
      <g>
       <use xlink:href="#m33c9699d52" x="629.370041" y="256.43" style="stroke: #000000; stroke-width: 0.8"/>
      </g>
     </g>
     <g id="text_9">
      <!-- 07/01 -->
      <g style="fill: #8b949e" transform="translate(614.960666 271.027656) scale(0.1 -0.1)">
       <use xlink:href="#DejaVuSans-13"/>
       <use xlink:href="#DejaVuSans-1a" transform="translate(63.625 0)"/>
       <use xlink:href="#DejaVuSans-12" transform="translate(127.25 0)"/>
       <use xlink:href="#DejaVuSans-13" transform="translate(160.9375 0)"/>
       <use xlink:href="#DejaVuSans-14" transform="translate(224.5625 0)"/>
      </g>
     </g>
    </g>
   </g>
   <g id="matplotlib.axis_2">
    <g id="ytick_1">
     <g id="line2d_19">
      <path d="M 59.013203 224.962727 
L 651.888984 224.962727 
" clip-path="url(#p1b9ac1a1f8)" style="fill: none; stroke-dasharray: 1.85,0.8; stroke-dashoffset: 0; stroke: #21262d; stroke-width: 0.5"/>
     </g>
     <g id="line2d_20">
      <defs>
       <path id="m9179248d54" d="M 0 0 
L -3.5 0 
" style="stroke: #000000; stroke-width: 0.8"/>
      </defs>
      <g>
       <use xlink:href="#m9179248d54" x="59.013203" y="224.962727" style="stroke: #000000; stroke-width: 0.8"/>
      </g>
     </g>
     <g id="text_10">
      <!-- 9600 -->
      <g style="fill: #58a6ff" transform="translate(26.563203 228.761555) scale(0.1 -0.1)">
       <defs>
        <path id="DejaVuSans-1c" d="M 703 97 
L 703 672 
Q 941 559 1184 500 
Q 1428 441 1663 441 
Q 2288 441 2617 861 
Q 2947 1281 2994 2138 
Q 2813 1869 2534 1725 
Q 2256 1581 1919 1581 
Q 1219 1581 811 2004 
Q 403 2428 403 3163 
Q 403 3881 828 4315 
Q 1253 4750 1959 4750 
Q 2769 4750 3195 4129 
Q 3622 3509 3622 2328 
Q 3622 1225 3098 567 
Q 2575 -91 1691 -91 
Q 1453 -91 1209 -44 
Q 966 3 703 97 
z
M 1959 2075 
Q 2384 2075 2632 2365 
Q 2881 2656 2881 3163 
Q 2881 3666 2632 3958 
Q 2384 4250 1959 4250 
Q 1534 4250 1286 3958 
Q 1038 3666 1038 3163 
Q 1038 2656 1286 2365 
Q 1534 2075 1959 2075 
z
" transform="scale(0.015625)"/>
        <path id="DejaVuSans-19" d="M 2113 2584 
Q 1688 2584 1439 2293 
Q 1191 2003 1191 1497 
Q 1191 994 1439 701 
Q 1688 409 2113 409 
Q 2538 409 2786 701 
Q 3034 994 3034 1497 
Q 3034 2003 2786 2293 
Q 2538 2584 2113 2584 
z
M 3366 4563 
L 3366 3988 
Q 3128 4100 2886 4159 
Q 2644 4219 2406 4219 
Q 1781 4219 1451 3797 
Q 1122 3375 1075 2522 
Q 1259 2794 1537 2939 
Q 1816 3084 2150 3084 
Q 2853 3084 3261 2657 
Q 3669 2231 3669 1497 
Q 3669 778 3244 343 
Q 2819 -91 2113 -91 
Q 1303 -91 875 529 
Q 447 1150 447 2328 
Q 447 3434 972 4092 
Q 1497 4750 2381 4750 
Q 2619 4750 2861 4703 
Q 3103 4656 3366 4563 
z
" transform="scale(0.015625)"/>
       </defs>
       <use xlink:href="#DejaVuSans-1c"/>
       <use xlink:href="#DejaVuSans-19" transform="translate(63.625 0)"/>
       <use xlink:href="#DejaVuSans-13" transform="translate(127.25 0)"/>
       <use xlink:href="#DejaVuSans-13" transform="translate(190.875 0)"/>
      </g>
     </g>
    </g>
    <g id="ytick_2">
     <g id="line2d_21">
      <path d="M 59.013203 183.006364 
L 651.888984 183.006364 
" clip-path="url(#p1b9ac1a1f8)" style="fill: none; stroke-dasharray: 1.85,0.8; stroke-dashoffset: 0; stroke: #21262d; stroke-width: 0.5"/>
     </g>
     <g id="line2d_22">
      <g>
       <use xlink:href="#m9179248d54" x="59.013203" y="183.006364" style="stroke: #000000; stroke-width: 0.8"/>
      </g>
     </g>
     <g id="text_11">
      <!-- 9800 -->
      <g style="fill: #58a6ff" transform="translate(26.563203 186.805192) scale(0.1 -0.1)">
       <defs>
        <path id="DejaVuSans-1b" d="M 2034 2216 
Q 1584 2216 1326 1975 
Q 1069 1734 1069 1313 
Q 1069 891 1326 650 
Q 1584 409 2034 409 
Q 2484 409 2743 651 
Q 3003 894 3003 1313 
Q 3003 1734 2745 1975 
Q 2488 2216 2034 2216 
z
M 1403 2484 
Q 997 2584 770 2862 
Q 544 3141 544 3541 
Q 544 4100 942 4425 
Q 1341 4750 2034 4750 
Q 2731 4750 3128 4425 
Q 3525 4100 3525 3541 
Q 3525 3141 3298 2862 
Q 3072 2584 2669 2484 
Q 3125 2378 3379 2068 
Q 3634 1759 3634 1313 
Q 3634 634 3220 271 
Q 2806 -91 2034 -91 
Q 1263 -91 848 271 
Q 434 634 434 1313 
Q 434 1759 690 2068 
Q 947 2378 1403 2484 
z
M 1172 3481 
Q 1172 3119 1398 2916 
Q 1625 2713 2034 2713 
Q 2441 2713 2670 2916 
Q 2900 3119 2900 3481 
Q 2900 3844 2670 4047 
Q 2441 4250 2034 4250 
Q 1625 4250 1398 4047 
Q 1172 3844 1172 3481 
z
" transform="scale(0.015625)"/>
       </defs>
       <use xlink:href="#DejaVuSans-1c"/>
       <use xlink:href="#DejaVuSans-1b" transform="translate(63.625 0)"/>
       <use xlink:href="#DejaVuSans-13" transform="translate(127.25 0)"/>
       <use xlink:href="#DejaVuSans-13" transform="translate(190.875 0)"/>
      </g>
     </g>
    </g>
    <g id="ytick_3">
     <g id="line2d_23">
      <path d="M 59.013203 141.05 
L 651.888984 141.05 
" clip-path="url(#p1b9ac1a1f8)" style="fill: none; stroke-dasharray: 1.85,0.8; stroke-dashoffset: 0; stroke: #21262d; stroke-width: 0.5"/>
     </g>
     <g id="line2d_24">
      <g>
       <use xlink:href="#m9179248d54" x="59.013203" y="141.05" style="stroke: #000000; stroke-width: 0.8"/>
      </g>
     </g>
     <g id="text_12">
      <!-- 10000 -->
      <g style="fill: #58a6ff" transform="translate(20.200703 144.848828) scale(0.1 -0.1)">
       <use xlink:href="#DejaVuSans-14"/>
       <use xlink:href="#DejaVuSans-13" transform="translate(63.625 0)"/>
       <use xlink:href="#DejaVuSans-13" transform="translate(127.25 0)"/>
       <use xlink:href="#DejaVuSans-13" transform="translate(190.875 0)"/>
       <use xlink:href="#DejaVuSans-13" transform="translate(254.5 0)"/>
      </g>
     </g>
    </g>
    <g id="ytick_4">
     <g id="line2d_25">
      <path d="M 59.013203 99.093636 
L 651.888984 99.093636 
" clip-path="url(#p1b9ac1a1f8)" style="fill: none; stroke-dasharray: 1.85,0.8; stroke-dashoffset: 0; stroke: #21262d; stroke-width: 0.5"/>
     </g>
     <g id="line2d_26">
      <g>
       <use xlink:href="#m9179248d54" x="59.013203" y="99.093636" style="stroke: #000000; stroke-width: 0.8"/>
      </g>
     </g>
     <g id="text_13">
      <!-- 10200 -->
      <g style="fill: #58a6ff" transform="translate(20.200703 102.892464) scale(0.1 -0.1)">
       <defs>
        <path id="DejaVuSans-15" d="M 1228 531 
L 3431 531 
L 3431 0 
L 469 0 
L 469 531 
Q 828 903 1448 1529 
Q 2069 2156 2228 2338 
Q 2531 2678 2651 2914 
Q 2772 3150 2772 3378 
Q 2772 3750 2511 3984 
Q 2250 4219 1831 4219 
Q 1534 4219 1204 4116 
Q 875 4013 500 3803 
L 500 4441 
Q 881 4594 1212 4672 
Q 1544 4750 1819 4750 
Q 2544 4750 2975 4387 
Q 3406 4025 3406 3419 
Q 3406 3131 3298 2873 
Q 3191 2616 2906 2266 
Q 2828 2175 2409 1742 
Q 1991 1309 1228 531 
z
" transform="scale(0.015625)"/>
       </defs>
       <use xlink:href="#DejaVuSans-14"/>
       <use xlink:href="#DejaVuSans-13" transform="translate(63.625 0)"/>
       <use xlink:href="#DejaVuSans-15" transform="translate(127.25 0)"/>
       <use xlink:href="#DejaVuSans-13" transform="translate(190.875 0)"/>
       <use xlink:href="#DejaVuSans-13" transform="translate(254.5 0)"/>
      </g>
     </g>
    </g>
    <g id="ytick_5">
     <g id="line2d_27">
      <path d="M 59.013203 57.137273 
L 651.888984 57.137273 
" clip-path="url(#p1b9ac1a1f8)" style="fill: none; stroke-dasharray: 1.85,0.8; stroke-dashoffset: 0; stroke: #21262d; stroke-width: 0.5"/>
     </g>
     <g id="line2d_28">
      <g>
       <use xlink:href="#m9179248d54" x="59.013203" y="57.137273" style="stroke: #000000; stroke-width: 0.8"/>
      </g>
     </g>
     <g id="text_14">
      <!-- 10400 -->
      <g style="fill: #58a6ff" transform="translate(20.200703 60.936101) scale(0.1 -0.1)">
       <defs>
        <path id="DejaVuSans-17" d="M 2419 4116 
L 825 1625 
L 2419 1625 
L 2419 4116 
z
M 2253 4666 
L 3047 4666 
L 3047 1625 
L 3713 1625 
L 3713 1100 
L 3047 1100 
L 3047 0 
L 2419 0 
L 2419 1100 
L 313 1100 
L 313 1709 
L 2253 4666 
z
" transform="scale(0.015625)"/>
       </defs>
       <use xlink:href="#DejaVuSans-14"/>
       <use xlink:href="#DejaVuSans-13" transform="translate(63.625 0)"/>
       <use xlink:href="#DejaVuSans-17" transform="translate(127.25 0)"/>
       <use xlink:href="#DejaVuSans-13" transform="translate(190.875 0)"/>
       <use xlink:href="#DejaVuSans-13" transform="translate(254.5 0)"/>
      </g>
     </g>
    </g>
    <g id="text_15">
     <!-- 账户价值 ($) -->
     <g style="fill: #58a6ff" transform="translate(14.038594 169.509688) rotate(-90) scale(0.09 -0.09)">
      <defs>
       <path id="LastResortHE-Regular-7a" d="M 6731 -747 
L 6731 4250 
Q 6731 4409 6656 4534 
Q 6578 4663 6451 4738 
Q 6325 4813 6169 4813 
L 1175 4813 
Q 1022 4813 894 4738 
Q 766 4659 689 4532 
Q 613 4406 613 4250 
L 613 -747 
Q 613 -903 691 -1028 
Q 766 -1156 894 -1232 
Q 1022 -1309 1175 -1309 
L 6169 -1309 
Q 6328 -1309 6453 -1231 
Q 6581 -1156 6656 -1028 
Q 6731 -900 6731 -747 
z
M 4131 4266 
L 3991 4431 
L 3991 4266 
L 3875 4266 
L 3875 4738 
L 3991 4738 
L 3991 4563 
L 4141 4738 
L 4250 4738 
L 4044 4500 
L 4250 4266 
L 4131 4266 
z
M 3791 4369 
Q 3791 4266 3691 4266 
L 3578 4266 
Q 3478 4266 3478 4369 
L 3478 4484 
L 3594 4484 
L 3594 4375 
L 3606 4344 
L 3634 4331 
L 3666 4344 
L 3678 4375 
L 3678 4738 
L 3791 4738 
L 3791 4369 
z
M 3344 4381 
L 3406 4381 
Q 3403 4266 3300 4266 
L 3200 4266 
Q 3094 4266 3094 4375 
L 3094 4628 
Q 3094 4738 3200 4738 
L 3300 4738 
Q 3400 4738 3406 4619 
L 3344 4619 
Q 3341 4669 3300 4669 
L 3253 4669 
L 3222 4656 
L 3206 4625 
L 3206 4375 
L 3222 4344 
L 3253 4331 
L 3300 4331 
Q 3341 4331 3344 4381 
z
M 6122 3750 
L 6122 -247 
Q 6122 -372 6063 -472 
Q 6003 -575 5900 -636 
Q 5797 -697 5672 -697 
L 1672 -697 
Q 1553 -697 1447 -634 
Q 1344 -572 1283 -470 
Q 1222 -369 1222 -247 
L 1222 3750 
Q 1222 3872 1284 3978 
Q 1347 4078 1448 4139 
Q 1550 4200 1672 4200 
L 5672 4200 
Q 5800 4200 5900 4141 
Q 6000 4081 6061 3978 
Q 6122 3875 6122 3750 
z
M 3863 3350 
Q 3863 3544 3256 3778 
L 3225 3778 
Q 3206 3747 3206 3719 
Q 3272 3681 3516 3409 
Q 3734 3163 3778 3163 
Q 3797 3163 3819 3172 
Q 3863 3234 3863 3350 
z
M 5684 2994 
Q 5541 3288 5384 3288 
Q 5350 3288 5269 3222 
Q 5184 3147 5163 3138 
L 2244 3138 
L 2222 3372 
L 2191 3372 
Q 2141 3372 2134 3356 
Q 2134 2984 1863 2669 
Q 1769 2563 1769 2538 
Q 1769 2516 1881 2434 
Q 2228 2563 2247 3000 
L 2259 3016 
L 5225 3016 
L 5088 2784 
L 4972 2588 
Q 4972 2563 5016 2544 
Q 5266 2775 5425 2934 
Q 5438 2947 5478 2947 
Q 5581 2947 5684 2994 
z
M 6600 2819 
L 6600 2628 
Q 6600 2553 6540 2497 
Q 6481 2441 6406 2441 
L 6309 2441 
L 6309 2509 
Q 6472 2509 6472 2606 
L 6472 2619 
Q 6459 2600 6425 2600 
L 6372 2600 
Q 6253 2600 6253 2713 
L 6253 2819 
Q 6253 2931 6372 2931 
L 6481 2931 
Q 6600 2931 6600 2819 
z
M 1050 2597 
L 1050 2438 
L 928 2438 
L 928 2597 
L 719 2597 
L 719 2659 
L 931 2925 
L 1050 2925 
L 1050 2663 
L 1103 2663 
L 1103 2597 
L 1050 2597 
z
M 6472 2816 
L 6459 2850 
L 6425 2863 
L 6394 2850 
L 6378 2816 
L 6378 2716 
L 6394 2681 
L 6425 2669 
L 6459 2681 
L 6472 2716 
L 6472 2816 
z
M 928 2831 
L 797 2663 
L 928 2663 
L 928 2831 
z
M 5675 1234 
Q 5675 1272 5637 1326 
Q 5600 1381 5538 1438 
Q 5478 1494 5414 1536 
Q 5350 1578 5303 1591 
Q 5253 1538 5222 1497 
Q 5191 1456 5175 1431 
Q 5156 1400 5142 1378 
Q 5128 1356 5119 1341 
Q 5097 1313 5073 1306 
Q 5050 1300 4994 1300 
L 3816 1300 
L 3816 1609 
L 3819 1641 
Q 4013 1744 4013 1759 
L 3934 1859 
Q 4041 1903 4125 1942 
Q 4209 1981 4278 2013 
Q 4344 2044 4391 2066 
Q 4438 2088 4463 2103 
L 4703 2238 
Q 4788 2250 4856 2266 
Q 4891 2272 4917 2275 
Q 4944 2278 4966 2281 
L 4966 2306 
Q 4963 2322 4950 2340 
Q 4938 2359 4922 2384 
Q 4838 2488 4750 2572 
Q 4706 2606 4691 2606 
Q 4584 2606 4484 2475 
L 4322 2459 
L 2788 2459 
Q 2731 2459 2613 2478 
Q 2497 2497 2434 2497 
L 2363 2497 
Q 2416 2303 2478 2303 
L 2859 2344 
L 4456 2344 
L 3800 1888 
L 3566 1966 
Q 3566 1953 3567 1942 
Q 3569 1931 3572 1916 
Q 3575 1900 3576 1883 
Q 3578 1866 3581 1844 
Q 3588 1803 3592 1772 
Q 3597 1741 3597 1719 
L 3597 1300 
L 1875 1300 
Q 1859 1300 1806 1309 
Q 1778 1316 1740 1322 
Q 1703 1328 1659 1341 
L 1659 1306 
L 1731 1122 
Q 1822 1122 1984 1163 
Q 2150 1200 2234 1200 
Q 2581 1200 2922 1186 
Q 3263 1172 3597 1147 
L 3597 119 
L 3534 66 
L 2816 113 
L 2816 38 
Q 2975 -6 3072 -34 
Q 3169 -63 3228 -91 
Q 3288 -119 3330 -161 
Q 3372 -203 3419 -275 
Q 3875 -259 3875 306 
Q 3875 319 3875 331 
Q 3875 344 3875 356 
Q 3875 369 3875 381 
Q 3875 394 3872 406 
L 3825 1147 
L 5659 1147 
Q 5666 1175 5670 1197 
Q 5675 1219 5675 1234 
z
M 788 1822 
L 788 2306 
L 1050 2306 
L 1050 2238 
L 900 2238 
L 900 2097 
L 1000 2097 
L 1000 2031 
L 900 2031 
L 900 1891 
L 1050 1891 
L 1050 1822 
L 788 1822 
z
M 6406 2238 
L 6406 2097 
L 6506 2097 
L 6506 2031 
L 6406 2031 
L 6406 1822 
L 6294 1822 
L 6294 2306 
L 6556 2306 
L 6556 2238 
L 6406 2238 
z
M 6406 1628 
L 6406 1488 
L 6506 1488 
L 6506 1419 
L 6406 1419 
L 6406 1213 
L 6294 1213 
L 6294 1694 
L 6556 1694 
L 6556 1628 
L 6406 1628 
z
M 1091 1581 
L 1091 1316 
Q 1091 1203 978 1203 
L 856 1203 
Q 744 1203 744 1313 
L 744 1584 
Q 744 1694 856 1694 
L 978 1694 
Q 1091 1694 1091 1581 
z
M 966 1578 
L 950 1613 
L 919 1625 
L 884 1613 
L 872 1578 
L 872 1319 
L 884 1288 
L 919 1272 
L 950 1288 
L 966 1319 
L 966 1578 
z
M 6391 991 
L 6391 881 
L 6538 881 
L 6538 794 
L 6391 794 
L 6391 588 
L 6263 588 
L 6263 1078 
L 6581 1078 
L 6581 991 
L 6391 991 
z
M 1091 963 
L 1091 700 
Q 1091 588 978 588 
L 856 588 
Q 744 588 744 694 
L 744 969 
Q 744 1075 856 1075 
L 978 1075 
Q 1091 1075 1091 963 
z
M 966 963 
L 950 994 
L 919 1006 
L 884 994 
L 872 963 
L 872 703 
L 884 669 
L 919 656 
L 950 669 
L 966 703 
L 966 963 
z
M 1825 -1234 
L 1825 -763 
L 1931 -763 
L 1931 -1234 
L 1825 -1234 
z
M 3553 -881 
L 3488 -881 
Q 3484 -831 3444 -831 
L 3397 -831 
L 3366 -844 
L 3353 -875 
L 3353 -1125 
L 3366 -1156 
L 3397 -1169 
Q 3438 -1166 3438 -1125 
L 3438 -1031 
L 3388 -1031 
L 3388 -966 
L 3550 -966 
L 3550 -1125 
Q 3550 -1234 3444 -1234 
L 3344 -1234 
Q 3238 -1234 3238 -1125 
L 3238 -872 
Q 3238 -763 3344 -763 
L 3444 -763 
Q 3547 -763 3553 -881 
z
M 3844 -1234 
L 3844 -1078 
L 3831 -1044 
L 3800 -1031 
L 3759 -1031 
L 3759 -1234 
L 3644 -1234 
L 3644 -763 
L 3856 -763 
Q 3956 -763 3956 -900 
Q 3956 -969 3906 -991 
L 3941 -1006 
L 3956 -1047 
L 3956 -1234 
L 3844 -1234 
z
M 2475 -1234 
L 2475 -763 
L 2738 -763 
L 2738 -831 
L 2588 -831 
L 2588 -966 
L 2688 -966 
L 2688 -1031 
L 2588 -1031 
L 2588 -1169 
L 2738 -1169 
L 2738 -1234 
L 2475 -1234 
z
M 2375 -872 
L 2375 -1125 
Q 2375 -1234 2272 -1234 
L 2063 -1234 
L 2063 -763 
L 2272 -763 
Q 2375 -763 2375 -872 
z
M 4244 -1234 
L 4244 -1031 
L 4159 -1031 
L 4159 -1234 
L 4044 -1234 
L 4044 -869 
Q 4044 -763 4147 -763 
L 4256 -763 
Q 4356 -763 4356 -872 
L 4356 -1234 
L 4244 -1234 
z
M 4753 -872 
L 4753 -928 
Q 4753 -1031 4594 -1031 
L 4553 -1031 
L 4553 -1234 
L 4441 -1234 
L 4441 -763 
L 4650 -763 
Q 4753 -763 4753 -872 
z
M 5028 -1234 
L 5028 -1031 
L 4941 -1031 
L 4941 -1234 
L 4828 -1234 
L 4828 -763 
L 4941 -763 
L 4941 -966 
L 5028 -966 
L 5028 -763 
L 5141 -763 
L 5141 -1234 
L 5028 -1234 
z
M 5519 -1125 
Q 5519 -1234 5416 -1234 
L 5356 -1234 
Q 5256 -1234 5256 -1119 
L 5322 -1119 
L 5322 -1131 
L 5334 -1159 
L 5363 -1169 
L 5394 -1156 
L 5403 -1125 
Q 5403 -1116 5331 -1025 
Q 5256 -934 5256 -872 
Q 5256 -763 5356 -763 
L 5419 -763 
Q 5513 -763 5519 -881 
L 5456 -881 
Q 5450 -828 5416 -828 
Q 5403 -831 5395 -834 
Q 5388 -838 5381 -841 
Q 5378 -844 5378 -848 
Q 5378 -853 5375 -859 
Q 5372 -863 5372 -867 
Q 5372 -872 5369 -875 
Q 5369 -881 5444 -972 
Q 5519 -1059 5519 -1125 
z
M 3153 -872 
L 3153 -1125 
Q 3153 -1234 3053 -1234 
L 2944 -1234 
Q 2841 -1234 2841 -1131 
L 2841 -869 
Q 2841 -766 2944 -766 
L 3053 -766 
Q 3153 -766 3153 -872 
z
M 4638 -875 
L 4625 -844 
L 4594 -831 
L 4553 -831 
L 4553 -966 
L 4594 -966 
L 4625 -953 
L 4638 -922 
L 4638 -875 
z
M 4244 -875 
L 4231 -844 
L 4200 -831 
L 4172 -844 
L 4159 -875 
L 4159 -966 
L 4244 -966 
L 4244 -875 
z
M 3844 -875 
L 3831 -844 
L 3800 -831 
L 3759 -831 
L 3759 -966 
L 3800 -966 
L 3831 -953 
L 3844 -922 
L 3844 -875 
z
M 3041 -875 
L 3028 -844 
L 2997 -831 
L 2969 -844 
L 2956 -875 
L 2956 -1125 
L 2969 -1156 
L 2997 -1169 
L 3028 -1156 
L 3041 -1125 
L 3041 -875 
z
M 2259 -875 
L 2247 -844 
L 2216 -831 
L 2175 -831 
L 2175 -1169 
L 2216 -1169 
L 2247 -1156 
L 2259 -1125 
L 2259 -875 
z
" transform="scale(0.015625)"/>
       <path id="DejaVuSans-3" transform="scale(0.015625)"/>
       <path id="DejaVuSans-b" d="M 1984 4856 
Q 1566 4138 1362 3434 
Q 1159 2731 1159 2009 
Q 1159 1288 1364 580 
Q 1569 -128 1984 -844 
L 1484 -844 
Q 1016 -109 783 600 
Q 550 1309 550 2009 
Q 550 2706 781 3412 
Q 1013 4119 1484 4856 
L 1984 4856 
z
" transform="scale(0.015625)"/>
       <path id="DejaVuSans-7" d="M 2163 -941 
L 1850 -941 
L 1847 0 
Q 1519 6 1191 76 
Q 863 147 531 288 
L 531 850 
Q 850 650 1176 548 
Q 1503 447 1850 444 
L 1850 1869 
Q 1159 1981 845 2250 
Q 531 2519 531 2988 
Q 531 3497 872 3790 
Q 1213 4084 1850 4128 
L 1850 4863 
L 2163 4863 
L 2163 4138 
Q 2453 4125 2725 4076 
Q 2997 4028 3256 3944 
L 3256 3397 
Q 2997 3528 2723 3600 
Q 2450 3672 2163 3684 
L 2163 2350 
Q 2872 2241 3206 1959 
Q 3541 1678 3541 1191 
Q 3541 663 3186 358 
Q 2831 53 2163 6 
L 2163 -941 
z
M 1850 2406 
L 1850 3688 
Q 1488 3647 1297 3481 
Q 1106 3316 1106 3041 
Q 1106 2772 1282 2622 
Q 1459 2472 1850 2406 
z
M 2163 1806 
L 2163 453 
Q 2559 506 2761 678 
Q 2963 850 2963 1131 
Q 2963 1406 2770 1568 
Q 2578 1731 2163 1806 
z
" transform="scale(0.015625)"/>
       <path id="DejaVuSans-c" d="M 513 4856 
L 1013 4856 
Q 1481 4119 1714 3412 
Q 1947 2706 1947 2009 
Q 1947 1309 1714 600 
Q 1481 -109 1013 -844 
L 513 -844 
Q 928 -128 1133 580 
Q 1338 1288 1338 2009 
Q 1338 2731 1133 3434 
Q 928 4138 513 4856 
z
" transform="scale(0.015625)"/>
      </defs>
      <use xlink:href="#LastResortHE-Regular-7a"/>
      <use xlink:href="#LastResortHE-Regular-7a" transform="translate(114.75 0)"/>
      <use xlink:href="#LastResortHE-Regular-7a" transform="translate(229.5 0)"/>
      <use xlink:href="#LastResortHE-Regular-7a" transform="translate(344.25 0)"/>
      <use xlink:href="#DejaVuSans-3" transform="translate(459 0)"/>
      <use xlink:href="#DejaVuSans-b" transform="translate(490.78125 0)"/>
      <use xlink:href="#DejaVuSans-7" transform="translate(529.796875 0)"/>
      <use xlink:href="#DejaVuSans-c" transform="translate(593.421875 0)"/>
     </g>
    </g>
   </g>
   <g id="line2d_29">
    <path d="M 355.451094 141.05 
" clip-path="url(#p1b9ac1a1f8)" style="fill: none; stroke: #58a6ff; stroke-width: 2; stroke-linecap: square"/>
   </g>
   <g id="patch_3">
    <path d="M 59.013203 256.43 
L 59.013203 25.67 
" style="fill: none; stroke: #21262d; stroke-width: 0.8; stroke-linejoin: miter; stroke-linecap: square"/>
   </g>
   <g id="patch_4">
    <path d="M 651.888984 256.43 
L 651.888984 25.67 
" style="fill: none; stroke: #21262d; stroke-width: 0.8; stroke-linejoin: miter; stroke-linecap: square"/>
   </g>
   <g id="patch_5">
    <path d="M 59.013203 256.43 
L 651.888984 256.43 
" style="fill: none; stroke: #21262d; stroke-width: 0.8; stroke-linejoin: miter; stroke-linecap: square"/>
   </g>
   <g id="patch_6">
    <path d="M 59.013203 25.67 
L 651.888984 25.67 
" style="fill: none; stroke: #21262d; stroke-width: 0.8; stroke-linejoin: miter; stroke-linecap: square"/>
   </g>
   <g id="text_16">
    <!-- AI Gold Fund  |  $10,000.00  (+$0.00) -->
    <g style="fill: #e6edf3" transform="translate(261.511094 15.67) scale(0.11 -0.11)">
     <defs>
      <path id="DejaVuSans-24" d="M 2188 4044 
L 1331 1722 
L 3047 1722 
L 2188 4044 
z
M 1831 4666 
L 2547 4666 
L 4325 0 
L 3669 0 
L 3244 1197 
L 1141 1197 
L 716 0 
L 50 0 
L 1831 4666 
z
" transform="scale(0.015625)"/>
      <path id="DejaVuSans-2c" d="M 628 4666 
L 1259 4666 
L 1259 0 
L 628 0 
L 628 4666 
z
" transform="scale(0.015625)"/>
      <path id="DejaVuSans-2a" d="M 3809 666 
L 3809 1919 
L 2778 1919 
L 2778 2438 
L 4434 2438 
L 4434 434 
Q 4069 175 3628 42 
Q 3188 -91 2688 -91 
Q 1594 -91 976 548 
Q 359 1188 359 2328 
Q 359 3472 976 4111 
Q 1594 4750 2688 4750 
Q 3144 4750 3555 4637 
Q 3966 4525 4313 4306 
L 4313 3634 
Q 3963 3931 3569 4081 
Q 3175 4231 2741 4231 
Q 1884 4231 1454 3753 
Q 1025 3275 1025 2328 
Q 1025 1384 1454 906 
Q 1884 428 2741 428 
Q 3075 428 3337 486 
Q 3600 544 3809 666 
z
" transform="scale(0.015625)"/>
      <path id="DejaVuSans-52" d="M 1959 3097 
Q 1497 3097 1228 2736 
Q 959 2375 959 1747 
Q 959 1119 1226 758 
Q 1494 397 1959 397 
Q 2419 397 2687 759 
Q 2956 1122 2956 1747 
Q 2956 2369 2687 2733 
Q 2419 3097 1959 3097 
z
M 1959 3584 
Q 2709 3584 3137 3096 
Q 3566 2609 3566 1747 
Q 3566 888 3137 398 
Q 2709 -91 1959 -91 
Q 1206 -91 779 398 
Q 353 888 353 1747 
Q 353 2609 779 3096 
Q 1206 3584 1959 3584 
z
" transform="scale(0.015625)"/>
      <path id="DejaVuSans-4f" d="M 603 4863 
L 1178 4863 
L 1178 0 
L 603 0 
L 603 4863 
z
" transform="scale(0.015625)"/>
      <path id="DejaVuSans-47" d="M 2906 2969 
L 2906 4863 
L 3481 4863 
L 3481 0 
L 2906 0 
L 2906 525 
Q 2725 213 2448 61 
Q 2172 -91 1784 -91 
Q 1150 -91 751 415 
Q 353 922 353 1747 
Q 353 2572 751 3078 
Q 1150 3584 1784 3584 
Q 2172 3584 2448 3432 
Q 2725 3281 2906 2969 
z
M 947 1747 
Q 947 1113 1208 752 
Q 1469 391 1925 391 
Q 2381 391 2643 752 
Q 2906 1113 2906 1747 
Q 2906 2381 2643 2742 
Q 2381 3103 1925 3103 
Q 1469 3103 1208 2742 
Q 947 2381 947 1747 
z
" transform="scale(0.015625)"/>
      <path id="DejaVuSans-29" d="M 628 4666 
L 3309 4666 
L 3309 4134 
L 1259 4134 
L 1259 2759 
L 3109 2759 
L 3109 2228 
L 1259 2228 
L 1259 0 
L 628 0 
L 628 4666 
z
" transform="scale(0.015625)"/>
      <path id="DejaVuSans-58" d="M 544 1381 
L 544 3500 
L 1119 3500 
L 1119 1403 
Q 1119 906 1312 657 
Q 1506 409 1894 409 
Q 2359 409 2629 706 
Q 2900 1003 2900 1516 
L 2900 3500 
L 3475 3500 
L 3475 0 
L 2900 0 
L 2900 538 
Q 2691 219 2414 64 
Q 2138 -91 1772 -91 
Q 1169 -91 856 284 
Q 544 659 544 1381 
z
M 1991 3584 
L 1991 3584 
z
" transform="scale(0.015625)"/>
      <path id="DejaVuSans-51" d="M 3513 2113 
L 3513 0 
L 2938 0 
L 2938 2094 
Q 2938 2591 2744 2837 
Q 2550 3084 2163 3084 
Q 1697 3084 1428 2787 
Q 1159 2491 1159 1978 
L 1159 0 
L 581 0 
L 581 3500 
L 1159 3500 
L 1159 2956 
Q 1366 3272 1645 3428 
Q 1925 3584 2291 3584 
Q 2894 3584 3203 3211 
Q 3513 2838 3513 2113 
z
" transform="scale(0.015625)"/>
      <path id="DejaVuSans-5f" d="M 1344 4891 
L 1344 -1509 
L 813 -1509 
L 813 4891 
L 1344 4891 
z
" transform="scale(0.015625)"/>
      <path id="DejaVuSans-f" d="M 750 794 
L 1409 794 
L 1409 256 
L 897 -744 
L 494 -744 
L 750 256 
L 750 794 
z
" transform="scale(0.015625)"/>
      <path id="DejaVuSans-11" d="M 684 794 
L 1344 794 
L 1344 0 
L 684 0 
L 684 794 
z
" transform="scale(0.015625)"/>
      <path id="DejaVuSans-e" d="M 2944 4013 
L 2944 2272 
L 4684 2272 
L 4684 1741 
L 2944 1741 
L 2944 0 
L 2419 0 
L 2419 1741 
L 678 1741 
L 678 2272 
L 2419 2272 
L 2419 4013 
L 2944 4013 
z
" transform="scale(0.015625)"/>
     </defs>
     <use xlink:href="#DejaVuSans-24" transform="translate(0 0.578125)"/>
     <use xlink:href="#DejaVuSans-2c" transform="translate(68.408203 0.578125)"/>
     <use xlink:href="#DejaVuSans-3" transform="translate(97.900391 0.578125)"/>
     <use xlink:href="#DejaVuSans-2a" transform="translate(129.6875 0.578125)"/>
     <use xlink:href="#DejaVuSans-52" transform="translate(207.177734 0.578125)"/>
     <use xlink:href="#DejaVuSans-4f" transform="translate(268.359375 0.578125)"/>
     <use xlink:href="#DejaVuSans-47" transform="translate(296.142578 0.578125)"/>
     <use xlink:href="#DejaVuSans-3" transform="translate(359.619141 0.578125)"/>
     <use xlink:href="#DejaVuSans-29" transform="translate(391.40625 0.578125)"/>
     <use xlink:href="#DejaVuSans-58" transform="translate(443.925781 0.578125)"/>
     <use xlink:href="#DejaVuSans-51" transform="translate(507.304688 0.578125)"/>
     <use xlink:href="#DejaVuSans-47" transform="translate(570.683594 0.578125)"/>
     <use xlink:href="#DejaVuSans-3" transform="translate(634.160156 0.578125)"/>
     <use xlink:href="#DejaVuSans-3" transform="translate(665.947266 0.578125)"/>
     <use xlink:href="#DejaVuSans-5f" transform="translate(697.734375 0.578125)"/>
     <use xlink:href="#DejaVuSans-3" transform="translate(731.425781 0.578125)"/>
     <use xlink:href="#DejaVuSans-3" transform="translate(763.212891 0.578125)"/>
     <use xlink:href="#DejaVuSans-14" transform="translate(795 0.578125)"/>
     <use xlink:href="#DejaVuSans-13" transform="translate(858.623047 0.578125)"/>
     <use xlink:href="#DejaVuSans-f" transform="translate(922.246094 0.578125)"/>
     <use xlink:href="#DejaVuSans-13" transform="translate(973.515625 0.578125)"/>
     <use xlink:href="#DejaVuSans-13" transform="translate(1037.138672 0.578125)"/>
     <use xlink:href="#DejaVuSans-13" transform="translate(1100.761719 0.578125)"/>
     <use xlink:href="#DejaVuSans-11" transform="translate(1164.384766 0.578125)"/>
     <use xlink:href="#DejaVuSans-13" transform="translate(1196.171875 0.578125)"/>
     <use xlink:href="#DejaVuSans-13" transform="translate(1259.794922 0.578125)"/>
     <use xlink:href="#DejaVuSans-b" transform="translate(1323.417969 0.578125)"/>
     <use xlink:href="#DejaVuSans-e" transform="translate(1362.431641 0.578125)"/>
     <use xlink:href="#DejaVuSans-13" transform="translate(1446.220703 0.578125)"/>
     <use xlink:href="#DejaVuSans-11" transform="translate(1509.84375 0.578125)"/>
     <use xlink:href="#DejaVuSans-13" transform="translate(1541.630859 0.578125)"/>
     <use xlink:href="#DejaVuSans-13" transform="translate(1605.253906 0.578125)"/>
     <use xlink:href="#DejaVuSans-c" transform="translate(1668.876953 0.578125)"/>
    </g>
   </g>
   <g id="legend_1">
    <g id="patch_7">
     <path d="M 64.613203 56.07125 
L 152.811953 56.07125 
Q 154.411953 56.07125 154.411953 54.47125 
L 154.411953 31.27 
Q 154.411953 29.67 152.811953 29.67 
L 64.613203 29.67 
Q 63.013203 29.67 63.013203 31.27 
L 63.013203 54.47125 
Q 63.013203 56.07125 64.613203 56.07125 
z
" style="fill: #161b22; opacity: 0.8; stroke: #cccccc; stroke-linejoin: miter"/>
    </g>
    <g id="line2d_30">
     <path d="M 66.213203 36.14875 
L 74.213203 36.14875 
L 82.213203 36.14875 
" style="fill: none; stroke: #58a6ff; stroke-width: 2; stroke-linecap: square"/>
    </g>
    <g id="text_17">
     <!-- 账户价值 (USD) -->
     <g style="fill: #e6edf3" transform="translate(88.613203 38.94875) scale(0.08 -0.08)">
      <defs>
       <path id="DejaVuSans-38" d="M 556 4666 
L 1191 4666 
L 1191 1831 
Q 1191 1081 1462 751 
Q 1734 422 2344 422 
Q 2950 422 3222 751 
Q 3494 1081 3494 1831 
L 3494 4666 
L 4128 4666 
L 4128 1753 
Q 4128 841 3676 375 
Q 3225 -91 2344 -91 
Q 1459 -91 1007 375 
Q 556 841 556 1753 
L 556 4666 
z
" transform="scale(0.015625)"/>
       <path id="DejaVuSans-36" d="M 3425 4513 
L 3425 3897 
Q 3066 4069 2747 4153 
Q 2428 4238 2131 4238 
Q 1616 4238 1336 4038 
Q 1056 3838 1056 3469 
Q 1056 3159 1242 3001 
Q 1428 2844 1947 2747 
L 2328 2669 
Q 3034 2534 3370 2195 
Q 3706 1856 3706 1288 
Q 3706 609 3251 259 
Q 2797 -91 1919 -91 
Q 1588 -91 1214 -16 
Q 841 59 441 206 
L 441 856 
Q 825 641 1194 531 
Q 1563 422 1919 422 
Q 2459 422 2753 634 
Q 3047 847 3047 1241 
Q 3047 1584 2836 1778 
Q 2625 1972 2144 2069 
L 1759 2144 
Q 1053 2284 737 2584 
Q 422 2884 422 3419 
Q 422 4038 858 4394 
Q 1294 4750 2059 4750 
Q 2388 4750 2728 4690 
Q 3069 4631 3425 4513 
z
" transform="scale(0.015625)"/>
       <path id="DejaVuSans-27" d="M 1259 4147 
L 1259 519 
L 2022 519 
Q 2988 519 3436 956 
Q 3884 1394 3884 2338 
Q 3884 3275 3436 3711 
Q 2988 4147 2022 4147 
L 1259 4147 
z
M 628 4666 
L 1925 4666 
Q 3281 4666 3915 4102 
Q 4550 3538 4550 2338 
Q 4550 1131 3912 565 
Q 3275 0 1925 0 
L 628 0 
L 628 4666 
z
" transform="scale(0.015625)"/>
      </defs>
      <use xlink:href="#LastResortHE-Regular-7a"/>
      <use xlink:href="#LastResortHE-Regular-7a" transform="translate(114.75 0)"/>
      <use xlink:href="#LastResortHE-Regular-7a" transform="translate(229.5 0)"/>
      <use xlink:href="#LastResortHE-Regular-7a" transform="translate(344.25 0)"/>
      <use xlink:href="#DejaVuSans-3" transform="translate(459 0)"/>
      <use xlink:href="#DejaVuSans-b" transform="translate(490.78125 0)"/>
      <use xlink:href="#DejaVuSans-38" transform="translate(529.796875 0)"/>
      <use xlink:href="#DejaVuSans-36" transform="translate(602.984375 0)"/>
      <use xlink:href="#DejaVuSans-27" transform="translate(666.46875 0)"/>
      <use xlink:href="#DejaVuSans-c" transform="translate(743.46875 0)"/>
     </g>
    </g>
    <g id="line2d_31">
     <path d="M 66.213203 48.149375 
L 74.213203 48.149375 
L 82.213203 48.149375 
" style="fill: none; stroke-dasharray: 5.55,2.4; stroke-dashoffset: 0; stroke: #e3b341; stroke-width: 1.5"/>
    </g>
    <g id="text_18">
     <!-- 黄金价格 ($/oz) -->
     <g style="fill: #e6edf3" transform="translate(88.613203 50.949375) scale(0.08 -0.08)">
      <defs>
       <path id="DejaVuSans-5d" d="M 353 3500 
L 3084 3500 
L 3084 2975 
L 922 459 
L 3084 459 
L 3084 0 
L 275 0 
L 275 525 
L 2438 3041 
L 353 3041 
L 353 3500 
z
" transform="scale(0.015625)"/>
      </defs>
      <use xlink:href="#LastResortHE-Regular-7a"/>
      <use xlink:href="#LastResortHE-Regular-7a" transform="translate(114.75 0)"/>
      <use xlink:href="#LastResortHE-Regular-7a" transform="translate(229.5 0)"/>
      <use xlink:href="#LastResortHE-Regular-7a" transform="translate(344.25 0)"/>
      <use xlink:href="#DejaVuSans-3" transform="translate(459 0)"/>
      <use xlink:href="#DejaVuSans-b" transform="translate(490.78125 0)"/>
      <use xlink:href="#DejaVuSans-7" transform="translate(529.796875 0)"/>
      <use xlink:href="#DejaVuSans-12" transform="translate(593.421875 0)"/>
      <use xlink:href="#DejaVuSans-52" transform="translate(627.109375 0)"/>
      <use xlink:href="#DejaVuSans-5d" transform="translate(688.296875 0)"/>
      <use xlink:href="#DejaVuSans-c" transform="translate(740.78125 0)"/>
     </g>
    </g>
   </g>
  </g>
  <g id="axes_2">
   <g id="matplotlib.axis_3">
    <g id="ytick_6">
     <g id="line2d_32">
      <defs>
       <path id="mdf6439f1da" d="M 0 0 
L 3.5 0 
" style="stroke: #000000; stroke-width: 0.8"/>
      </defs>
      <g>
       <use xlink:href="#mdf6439f1da" x="651.888984" y="224.962727" style="stroke: #000000; stroke-width: 0.8"/>
      </g>
     </g>
     <g id="text_19">
      <!-- −0.04 -->
      <g style="fill: #e3b341" transform="translate(658.888984 228.761555) scale(0.1 -0.1)">
       <defs>
        <path id="DejaVuSans-c9c" d="M 678 2272 
L 4684 2272 
L 4684 1741 
L 678 1741 
L 678 2272 
z
" transform="scale(0.015625)"/>
       </defs>
       <use xlink:href="#DejaVuSans-c9c"/>
       <use xlink:href="#DejaVuSans-13" transform="translate(83.796875 0)"/>
       <use xlink:href="#DejaVuSans-11" transform="translate(147.421875 0)"/>
       <use xlink:href="#DejaVuSans-13" transform="translate(179.203125 0)"/>
       <use xlink:href="#DejaVuSans-17" transform="translate(242.828125 0)"/>
      </g>
     </g>
    </g>
    <g id="ytick_7">
     <g id="line2d_33">
      <g>
       <use xlink:href="#mdf6439f1da" x="651.888984" y="183.006364" style="stroke: #000000; stroke-width: 0.8"/>
      </g>
     </g>
     <g id="text_20">
      <!-- −0.02 -->
      <g style="fill: #e3b341" transform="translate(658.888984 186.805192) scale(0.1 -0.1)">
       <use xlink:href="#DejaVuSans-c9c"/>
       <use xlink:href="#DejaVuSans-13" transform="translate(83.796875 0)"/>
       <use xlink:href="#DejaVuSans-11" transform="translate(147.421875 0)"/>
       <use xlink:href="#DejaVuSans-13" transform="translate(179.203125 0)"/>
       <use xlink:href="#DejaVuSans-15" transform="translate(242.828125 0)"/>
      </g>
     </g>
    </g>
    <g id="ytick_8">
     <g id="line2d_34">
      <g>
       <use xlink:href="#mdf6439f1da" x="651.888984" y="141.05" style="stroke: #000000; stroke-width: 0.8"/>
      </g>
     </g>
     <g id="text_21">
      <!-- 0.00 -->
      <g style="fill: #e3b341" transform="translate(658.888984 144.848828) scale(0.1 -0.1)">
       <use xlink:href="#DejaVuSans-13"/>
       <use xlink:href="#DejaVuSans-11" transform="translate(63.625 0)"/>
       <use xlink:href="#DejaVuSans-13" transform="translate(95.40625 0)"/>
       <use xlink:href="#DejaVuSans-13" transform="translate(159.03125 0)"/>
      </g>
     </g>
    </g>
    <g id="ytick_9">
     <g id="line2d_35">
      <g>
       <use xlink:href="#mdf6439f1da" x="651.888984" y="99.093636" style="stroke: #000000; stroke-width: 0.8"/>
      </g>
     </g>
     <g id="text_22">
      <!-- 0.02 -->
      <g style="fill: #e3b341" transform="translate(658.888984 102.892464) scale(0.1 -0.1)">
       <use xlink:href="#DejaVuSans-13"/>
       <use xlink:href="#DejaVuSans-11" transform="translate(63.625 0)"/>
       <use xlink:href="#DejaVuSans-13" transform="translate(95.40625 0)"/>
       <use xlink:href="#DejaVuSans-15" transform="translate(159.03125 0)"/>
      </g>
     </g>
    </g>
    <g id="ytick_10">
     <g id="line2d_36">
      <g>
       <use xlink:href="#mdf6439f1da" x="651.888984" y="57.137273" style="stroke: #000000; stroke-width: 0.8"/>
      </g>
     </g>
     <g id="text_23">
      <!-- 0.04 -->
      <g style="fill: #e3b341" transform="translate(658.888984 60.936101) scale(0.1 -0.1)">
       <use xlink:href="#DejaVuSans-13"/>
       <use xlink:href="#DejaVuSans-11" transform="translate(63.625 0)"/>
       <use xlink:href="#DejaVuSans-13" transform="translate(95.40625 0)"/>
       <use xlink:href="#DejaVuSans-17" transform="translate(159.03125 0)"/>
      </g>
     </g>
    </g>
    <g id="text_24">
     <!-- 黄金价格 ($/oz) -->
     <g style="fill: #e3b341" transform="translate(700.372891 176.140859) rotate(-90) scale(0.09 -0.09)">
      <use xlink:href="#LastResortHE-Regular-7a"/>
      <use xlink:href="#LastResortHE-Regular-7a" transform="translate(114.75 0)"/>
      <use xlink:href="#LastResortHE-Regular-7a" transform="translate(229.5 0)"/>
      <use xlink:href="#LastResortHE-Regular-7a" transform="translate(344.25 0)"/>
      <use xlink:href="#DejaVuSans-3" transform="translate(459 0)"/>
      <use xlink:href="#DejaVuSans-b" transform="translate(490.78125 0)"/>
      <use xlink:href="#DejaVuSans-7" transform="translate(529.796875 0)"/>
      <use xlink:href="#DejaVuSans-12" transform="translate(593.421875 0)"/>
      <use xlink:href="#DejaVuSans-52" transform="translate(627.109375 0)"/>
      <use xlink:href="#DejaVuSans-5d" transform="translate(688.296875 0)"/>
      <use xlink:href="#DejaVuSans-c" transform="translate(740.78125 0)"/>
     </g>
    </g>
   </g>
   <g id="line2d_37">
    <path d="M 355.451094 141.05 
" clip-path="url(#p1b9ac1a1f8)" style="fill: none; stroke-dasharray: 5.55,2.4; stroke-dashoffset: 0; stroke: #e3b341; stroke-width: 1.5"/>
   </g>
   <g id="patch_8">
    <path d="M 59.013203 256.43 
L 59.013203 25.67 
" style="fill: none; stroke: #21262d; stroke-width: 0.8; stroke-linejoin: miter; stroke-linecap: square"/>
   </g>
   <g id="patch_9">
    <path d="M 651.888984 256.43 
L 651.888984 25.67 
" style="fill: none; stroke: #21262d; stroke-width: 0.8; stroke-linejoin: miter; stroke-linecap: square"/>
   </g>
   <g id="patch_10">
    <path d="M 59.013203 256.43 
L 651.888984 256.43 
" style="fill: none; stroke: #21262d; stroke-width: 0.8; stroke-linejoin: miter; stroke-linecap: square"/>
   </g>
   <g id="patch_11">
    <path d="M 59.013203 25.67 
L 651.888984 25.67 
" style="fill: none; stroke: #21262d; stroke-width: 0.8; stroke-linejoin: miter; stroke-linecap: square"/>
   </g>
  </g>
 </g>
 <defs>
  <clipPath id="p1b9ac1a1f8">
   <rect x="59.013203" y="25.67" width="592.875781" height="230.76"/>
  </clipPath>
 </defs>
</svg>
